<svg width="1033" height="214" xmlns="http://www.w3.org/2000/svg" xmlns:xlink="http://www.w3.org/1999/xlink" xml:space="preserve" overflow="hidden"><defs><clipPath id="clip0"><rect x="123" y="477" width="1033" height="214"/></clipPath></defs><g clip-path="url(#clip0)" transform="translate(-123 -477)"><text font-family="Arial,Arial_MSFontService,sans-serif" font-weight="400" font-size="18" transform="matrix(0.999896 0 0 0.998541 585.591 582)">5</text><text font-family="Arial,Arial_MSFontService,sans-serif" font-weight="400" font-size="18" transform="matrix(0.999896 0 0 0.998541 595.601 582)">0</text><text font-family="Arial,Arial_MSFontService,sans-serif" font-weight="400" font-size="18" transform="matrix(0.999896 0 0 0.998541 605.61 582)">0</text><text font-family="Arial,Arial_MSFontService,sans-serif" font-weight="400" font-size="18" transform="matrix(0.999896 0 0 0.998541 615.62 582)">0</text><text font-family="Arial,Arial_MSFontService,sans-serif" font-weight="400" font-size="18" transform="matrix(0.999896 0 0 0.998541 625.63 582)">x</text><text font-family="Arial,Arial_MSFontService,sans-serif" font-weight="400" font-size="18" transform="matrix(0.999896 0 0 0.998541 634.629 582)">f</text><text font-family="Arial,Arial_MSFontService,sans-serif" font-weight="400" font-size="18" transform="matrix(0.999896 0 0 0.998541 639.629 582)">a</text><text font-family="Arial,Arial_MSFontService,sans-serif" font-weight="400" font-size="18" transform="matrix(0.999896 0 0 0.998541 649.639 582)">s</text><text font-family="Arial,Arial_MSFontService,sans-serif" font-weight="400" font-size="18" transform="matrix(0.999896 0 0 0.998541 658.638 582)">t</text><text font-family="Arial,Arial_MSFontService,sans-serif" font-weight="400" font-size="18" transform="matrix(0.999896 0 0 0.998541 663.639 582)">e</text><text font-family="Arial,Arial_MSFontService,sans-serif" font-weight="400" font-size="18" transform="matrix(0.999896 0 0 0.998541 673.648 582)">r</text><text font-family="Arial,Arial_MSFontService,sans-serif" font-weight="400" font-size="18" transform="matrix(0.999896 0 0 0.998541 607.36 629)">(</text><text font-family="Arial,Arial_MSFontService,sans-serif" font-weight="400" font-size="18" transform="matrix(0.999896 0 0 0.998541 613.354 629)">B</text><text font-family="Arial,Arial_MSFontService,sans-serif" font-weight="400" font-size="18" transform="matrix(0.999896 0 0 0.998541 625.359 629)">a</text><text font-family="Arial,Arial_MSFontService,sans-serif" font-weight="400" font-size="18" transform="matrix(0.999896 0 0 0.998541 635.368 629)">s</text><text font-family="Arial,Arial_MSFontService,sans-serif" font-weight="400" font-size="18" transform="matrix(0.999896 0 0 0.998541 644.367 629)">i</text><text font-family="Arial,Arial_MSFontService,sans-serif" font-weight="400" font-size="18" transform="matrix(0.999896 0 0 0.998541 648.366 629)">c</text><text font-family="Arial,Arial_MSFontService,sans-serif" font-weight="400" font-size="18" transform="matrix(0.999896 0 0 0.998541 657.365 629)">)</text><text font-family="Arial,Arial_MSFontService,sans-serif" font-weight="400" font-size="18" transform="matrix(0.999896 0 0 0.998541 582.566 314)">s</text><text font-family="Arial,Arial_MSFontService,sans-serif" font-weight="400" font-size="18" transform="matrix(0.999896 0 0 0.998541 591.565 314)">l</text><text font-family="Arial,Arial_MSFontService,sans-serif" font-weight="400" font-size="18" transform="matrix(0.999896 0 0 0.998541 595.564 314)">o</text><text font-family="Arial,Arial_MSFontService,sans-serif" font-weight="400" font-size="18" transform="matrix(0.999896 0 0 0.998541 605.574 314)">w</text><text font-family="Arial,Arial_MSFontService,sans-serif" font-weight="400" font-size="18" transform="matrix(0.999896 0 0 0.998541 618.571 314)">r</text><text font-family="Arial,Arial_MSFontService,sans-serif" font-weight="400" font-size="18" transform="matrix(0.999896 0 0 0.998541 624.565 314)">e</text><text font-family="Arial,Arial_MSFontService,sans-serif" font-weight="400" font-size="18" transform="matrix(0.999896 0 0 0.998541 634.575 314)">a</text><text font-family="Arial,Arial_MSFontService,sans-serif" font-weight="400" font-size="18" transform="matrix(0.999896 0 0 0.998541 644.584 314)">c</text><text font-family="Arial,Arial_MSFontService,sans-serif" font-weight="400" font-size="18" transform="matrix(0.999896 0 0 0.998541 653.583 314)">t</text><text font-family="Arial,Arial_MSFontService,sans-serif" font-weight="400" font-size="18" transform="matrix(0.999896 0 0 0.998541 658.584 314)">i</text><text font-family="Arial,Arial_MSFontService,sans-serif" font-weight="400" font-size="18" transform="matrix(0.999896 0 0 0.998541 662.582 314)">o</text><text font-family="Arial,Arial_MSFontService,sans-serif" font-weight="400" font-size="18" transform="matrix(0.999896 0 0 0.998541 672.592 314)">n</text><text font-family="Arial,Arial_MSFontService,sans-serif" font-weight="400" font-size="18" transform="matrix(0.999896 0 0 0.998541 593.687 357)">(</text><text font-family="Arial,Arial_MSFontService,sans-serif" font-weight="400" font-size="18" transform="matrix(0.999896 0 0 0.998541 599.68 357)">A</text><text font-family="Arial,Arial_MSFontService,sans-serif" font-weight="400" font-size="18" transform="matrix(0.999896 0 0 0.998541 611.685 357)">q</text><text font-family="Arial,Arial_MSFontService,sans-serif" font-weight="400" font-size="18" transform="matrix(0.999896 0 0 0.998541 621.695 357)">u</text><text font-family="Arial,Arial_MSFontService,sans-serif" font-weight="400" font-size="18" transform="matrix(0.999896 0 0 0.998541 631.704 357)">e</text><text font-family="Arial,Arial_MSFontService,sans-serif" font-weight="400" font-size="18" transform="matrix(0.999896 0 0 0.998541 641.714 357)">o</text><text font-family="Arial,Arial_MSFontService,sans-serif" font-weight="400" font-size="18" transform="matrix(0.999896 0 0 0.998541 651.724 357)">u</text><text font-family="Arial,Arial_MSFontService,sans-serif" font-weight="400" font-size="18" transform="matrix(0.999896 0 0 0.998541 661.733 357)">s</text><text font-family="Arial,Arial_MSFontService,sans-serif" font-weight="400" font-size="18" transform="matrix(0.999896 0 0 0.998541 670.732 357)">)</text><text font-family="Symbol,Symbol_MSFontService,sans-serif" font-weight="400" font-size="18" transform="matrix(0.999896 0 0 0.998541 373.099 309)">d</text><text font-family="Arial,Arial_MSFontService,sans-serif" font-weight="400" font-size="18" transform="matrix(0.999896 0 0 0.998541 381.993 309)">+</text><text font-family="Symbol,Symbol_MSFontService,sans-serif" font-weight="400" font-size="18" transform="matrix(0.999896 0 0 0.998541 452.043 335)">d</text><text font-family="Symbol,Symbol_MSFontService,sans-serif" font-weight="400" font-size="18" transform="matrix(0.999896 0 0 0.998541 460.937 335)">-</text><text font-family="Arial,Arial_MSFontService,sans-serif" font-weight="400" font-size="31" transform="matrix(0.999896 0 0 0.998541 351.168 326)">C</text><path d="M536.106-299.361 486.934-270.217" stroke="#000000" stroke-width="3.77402" stroke-linecap="round" transform="matrix(1.00136 0 0 1 -186.844 622.39)"/><text fill="#888888" font-family="Arial,Arial_MSFontService,sans-serif" font-weight="400" font-size="31" transform="matrix(0.999896 0 0 0.998541 277.044 370)">H</text><path d="M548.569-325.816 548.662-372.743" stroke="#000000" stroke-width="3.77402" stroke-linecap="round" transform="matrix(1.00136 0 0 1 -186.844 622.39)"/><text fill="#888888" font-family="Arial,Arial_MSFontService,sans-serif" font-weight="400" font-size="31" transform="matrix(0.999896 0 0 0.998541 351.336 241)">H</text><text fill="#A62929" font-family="Arial,Arial_MSFontService,sans-serif" font-weight="400" font-size="31" transform="matrix(0.999896 0 0 0.998541 433.96 358)">Br</text><text fill="#888888" font-family="Arial,Arial_MSFontService,sans-serif" font-weight="400" font-size="31" transform="matrix(0.999896 0 0 0.998541 377.111 408)">H</text><path d="M571.102-244.735 554.568-287.636 565.704-243.028Z" transform="matrix(1.00136 0 0 1 -186.844 622.39)"/><path d="M560.641-301.361 561.28-303.137" stroke="#000000" stroke-width="1.88701" transform="matrix(1.00136 0 0 1 -186.844 622.39)"/><path d="M564.62-299.893 565.282-301.73" stroke="#000000" stroke-width="1.88701" transform="matrix(1.00136 0 0 1 -186.844 622.39)"/><path d="M568.6-298.425 569.284-300.323" stroke="#000000" stroke-width="1.88701" transform="matrix(1.00136 0 0 1 -186.844 622.39)"/><path d="M572.58-296.957 573.286-298.916" stroke="#000000" stroke-width="1.88701" transform="matrix(1.00136 0 0 1 -186.844 622.39)"/><path d="M576.56-295.489 577.288-297.509" stroke="#000000" stroke-width="1.88701" transform="matrix(1.00136 0 0 1 -186.844 622.39)"/><path d="M580.54-294.021 581.289-296.102" stroke="#000000" stroke-width="1.88701" transform="matrix(1.00136 0 0 1 -186.844 622.39)"/><path d="M584.52-292.553 585.291-294.696" stroke="#000000" stroke-width="1.88701" transform="matrix(1.00136 0 0 1 -186.844 622.39)"/><path d="M588.499-291.084 589.293-293.289" stroke="#000000" stroke-width="1.88701" transform="matrix(1.00136 0 0 1 -186.844 622.39)"/><path d="M592.479-289.616 593.295-291.882" stroke="#000000" stroke-width="1.88701" transform="matrix(1.00136 0 0 1 -186.844 622.39)"/><path d="M596.459-288.148 597.297-290.475" stroke="#000000" stroke-width="1.88701" transform="matrix(1.00136 0 0 1 -186.844 622.39)"/><path d="M600.439-286.68 601.299-289.068" stroke="#000000" stroke-width="1.88701" transform="matrix(1.00136 0 0 1 -186.844 622.39)"/><path d="M604.419-285.212 605.301-287.661" stroke="#000000" stroke-width="1.88701" transform="matrix(1.00136 0 0 1 -186.844 622.39)"/><path d="M608.399-283.744 609.303-286.254" stroke="#000000" stroke-width="1.88701" transform="matrix(1.00136 0 0 1 -186.844 622.39)"/><path d="M612.378-282.276 613.305-284.847" stroke="#000000" stroke-width="1.88701" transform="matrix(1.00136 0 0 1 -186.844 622.39)"/><path d="M616.358-280.807 617.307-283.441" stroke="#000000" stroke-width="1.88701" transform="matrix(1.00136 0 0 1 -186.844 622.39)"/><path d="M363.055-314.159C363.055-312.504 361.714-311.163 360.06-311.163 358.405-311.163 357.064-312.504 357.064-314.159 357.064-315.813 358.405-317.154 360.06-317.154 361.714-317.154 363.055-315.813 363.055-314.159Z" fill="#FF0000" transform="matrix(1.00136 0 0 1 -186.844 622.39)"/><path d="M354.466-314.159C354.466-312.504 353.125-311.163 351.471-311.163 349.816-311.163 348.475-312.504 348.475-314.159 348.475-315.813 349.816-317.154 351.471-317.154 353.125-317.154 354.466-315.813 354.466-314.159Z" fill="#FF0000" transform="matrix(1.00136 0 0 1 -186.844 622.39)"/><text fill="#FF0D0D" font-family="Arial,Arial_MSFontService,sans-serif" font-weight="400" font-size="31" transform="matrix(0.999896 0 0 0.998541 123.189 343)">H</text><text fill="#FF0D0D" font-family="Arial,Arial_MSFontService,sans-serif" font-weight="400" font-size="18" transform="matrix(0.999896 0 0 0.998541 145.574 343)">2</text><text fill="#FF0D0D" font-family="Arial,Arial_MSFontService,sans-serif" font-weight="400" font-size="31" transform="matrix(0.999896 0 0 0.998541 155.584 343)">O</text><text fill="#FF0D0D" font-family="Arial,Arial_MSFontService,sans-serif" font-weight="400" font-size="31" transform="matrix(0.999896 0 0 0.998541 126.437 622)">H</text><text fill="#FF0D0D" font-family="Arial,Arial_MSFontService,sans-serif" font-weight="400" font-size="31" transform="matrix(0.999896 0 0 0.998541 148.822 622)">O</text><path d="M359.382-326.867C394.4-372.862 460.074-381.76 506.069-346.742 510.358-343.476 514.389-339.883 518.126-335.996" stroke="#0000F5" stroke-width="1.88701" fill="none" transform="matrix(1.00136 0 0 1 -186.844 622.39)"/><path d="M528.313-323.628 519.737-341.059 518.126-335.996 512.536-334.962Z" fill="#0000F5" transform="matrix(1.00136 0 0 1 -186.844 622.39)"/><path d="M365.401-29.987 378.051-30.2431" stroke="#FF0000" stroke-width="1.88701" transform="matrix(1.00136 0 0 1 -186.844 622.39)"/><path d="M376.599-287.915C376.599-286.261 375.258-284.92 373.604-284.92 371.949-284.92 370.608-286.261 370.608-287.915 370.608-289.57 371.949-290.911 373.604-290.911 375.258-290.911 376.599-289.57 376.599-287.915Z" fill="#FF0000" transform="matrix(-0.0222256 0.999753 -1.00111 -0.0221955 -92.6647 -45.4263)"/><path d="M376.79-296.5C376.79-294.846 375.449-293.505 373.795-293.505 372.14-293.505 370.799-294.846 370.799-296.5 370.799-298.155 372.14-299.496 373.795-299.496 375.449-299.496 376.79-298.155 376.79-296.5Z" fill="#FF0000" transform="matrix(-0.0219505 0.999759 -1.00111 -0.0219207 -101.168 -54.3144)"/><path d="M371.208-5.34552C371.208-3.69108 369.867-2.34989 368.212-2.34989 366.558-2.34989 365.216-3.69108 365.216-5.34552 365.216-6.99996 366.558-8.34114 368.212-8.34114 369.867-8.34114 371.208-6.99996 371.208-5.34552Z" fill="#FF0000" transform="matrix(-0.0113542 0.999936 -1.00129 -0.0113389 180.696 248.796)"/><path d="M371.304-13.9324C371.304-12.278 369.963-10.9368 368.308-10.9368 366.654-10.9368 365.312-12.278 365.312-13.9324 365.312-15.5869 366.654-16.9281 368.308-16.9281 369.963-16.9281 371.304-15.5869 371.304-13.9324Z" fill="#FF0000" transform="matrix(-0.0112755 0.999936 -1.00129 -0.0112602 172.166 240.016)"/><path d="M356.216-35.0582C356.216-33.4037 354.875-32.0626 353.221-32.0626 351.566-32.0626 350.225-33.4037 350.225-35.0582 350.225-36.7126 351.566-38.0538 353.221-38.0538 354.875-38.0538 356.216-36.7126 356.216-35.0582Z" fill="#FF0000" transform="matrix(1.00136 0 0 1 -186.844 622.39)"/><path d="M347.63-35.0582C347.63-33.4037 346.289-32.0626 344.634-32.0626 342.98-32.0626 341.639-33.4037 341.639-35.0582 341.639-36.7126 342.98-38.0538 344.634-38.0538 346.289-38.0538 347.63-36.7126 347.63-35.0582Z" fill="#FF0000" transform="matrix(1.00136 0 0 1 -186.844 622.39)"/><text font-family="Symbol,Symbol_MSFontService,sans-serif" font-weight="400" font-size="18" transform="matrix(0.999896 0 0 0.998541 373.099 588)">d</text><text font-family="Arial,Arial_MSFontService,sans-serif" font-weight="400" font-size="18" transform="matrix(0.999896 0 0 0.998541 381.993 588)">+</text><text font-family="Symbol,Symbol_MSFontService,sans-serif" font-weight="400" font-size="18" transform="matrix(0.999896 0 0 0.998541 452.043 613)">d</text><text font-family="Symbol,Symbol_MSFontService,sans-serif" font-weight="400" font-size="18" transform="matrix(0.999896 0 0 0.998541 460.937 613)">-</text><text font-family="Arial,Arial_MSFontService,sans-serif" font-weight="400" font-size="31" transform="matrix(0.999896 0 0 0.998541 352.542 605)">C</text><path d="M537.478-21.1213 488.31 8.02126" stroke="#000000" stroke-width="3.77402" stroke-linecap="round" transform="matrix(1.00136 0 0 1 -186.844 622.39)"/><text fill="#888888" font-family="Arial,Arial_MSFontService,sans-serif" font-weight="400" font-size="31" transform="matrix(0.999896 0 0 0.998541 278.422 648)">H</text><path d="M549.941-47.5762 550.036-97.2528" stroke="#000000" stroke-width="3.77402" stroke-linecap="round" transform="matrix(1.00136 0 0 1 -186.844 622.39)"/><text fill="#888888" font-family="Arial,Arial_MSFontService,sans-serif" font-weight="400" font-size="31" transform="matrix(0.999896 0 0 0.998541 352.712 517)">H</text><text fill="#A62929" font-family="Arial,Arial_MSFontService,sans-serif" font-weight="400" font-size="31" transform="matrix(0.999896 0 0 0.998541 435.339 633)">Br</text><text fill="#888888" font-family="Arial,Arial_MSFontService,sans-serif" font-weight="400" font-size="31" transform="matrix(0.999896 0 0 0.998541 378.485 684)">H</text><path d="M572.256 30.7292 556.15-9.39686 566.876 32.4895Z" transform="matrix(1.00136 0 0 1 -186.844 622.39)"/><path d="M562.037-23.5063 562.626-25.2991" stroke="#000000" stroke-width="1.88701" transform="matrix(1.00136 0 0 1 -186.844 622.39)"/><path d="M566.057-22.1509 566.666-24.0061" stroke="#000000" stroke-width="1.88701" transform="matrix(1.00136 0 0 1 -186.844 622.39)"/><path d="M570.076-20.7954 570.707-22.7131" stroke="#000000" stroke-width="1.88701" transform="matrix(1.00136 0 0 1 -186.844 622.39)"/><path d="M574.096-19.44 574.747-21.4201" stroke="#000000" stroke-width="1.88701" transform="matrix(1.00136 0 0 1 -186.844 622.39)"/><path d="M578.116-18.0845 578.787-20.1271" stroke="#000000" stroke-width="1.88701" transform="matrix(1.00136 0 0 1 -186.844 622.39)"/><path d="M582.135-16.7291 582.827-18.8341" stroke="#000000" stroke-width="1.88701" transform="matrix(1.00136 0 0 1 -186.844 622.39)"/><path d="M586.155-15.3736 586.867-17.5411" stroke="#000000" stroke-width="1.88701" transform="matrix(1.00136 0 0 1 -186.844 622.39)"/><path d="M590.174-14.0182 590.907-16.2481" stroke="#000000" stroke-width="1.88701" transform="matrix(1.00136 0 0 1 -186.844 622.39)"/><path d="M594.194-12.6627 594.947-14.9551" stroke="#000000" stroke-width="1.88701" transform="matrix(1.00136 0 0 1 -186.844 622.39)"/><path d="M598.214-11.3073 598.987-13.6622" stroke="#000000" stroke-width="1.88701" transform="matrix(1.00136 0 0 1 -186.844 622.39)"/><path d="M602.233-9.95184 603.028-12.3692" stroke="#000000" stroke-width="1.88701" transform="matrix(1.00136 0 0 1 -186.844 622.39)"/><path d="M606.253-8.59639 607.068-11.0762" stroke="#000000" stroke-width="1.88701" transform="matrix(1.00136 0 0 1 -186.844 622.39)"/><path d="M610.273-7.24094 611.108-9.78318" stroke="#000000" stroke-width="1.88701" transform="matrix(1.00136 0 0 1 -186.844 622.39)"/><path d="M614.292-5.88549 615.148-8.49019" stroke="#000000" stroke-width="1.88701" transform="matrix(1.00136 0 0 1 -186.844 622.39)"/><path d="M618.312-4.53004 619.188-7.1972" stroke="#000000" stroke-width="1.88701" transform="matrix(1.00136 0 0 1 -186.844 622.39)"/><text font-family="Arial,Arial_MSFontService,sans-serif" font-weight="400" font-size="31" transform="matrix(0.999896 0 0 0.998541 905.265 326)">C</text><path d="M1089.45-299.361 1043.37-272.047" stroke="#000000" stroke-width="3.77402" stroke-linecap="round" transform="matrix(1.00136 0 0 1 -186.844 622.39)"/><text fill="#FF0D0D" font-family="Arial,Arial_MSFontService,sans-serif" font-weight="400" font-size="31" transform="matrix(0.999896 0 0 0.998541 807.742 370)">H</text><text fill="#FF0D0D" font-family="Arial,Arial_MSFontService,sans-serif" font-weight="400" font-size="31" transform="matrix(0.999896 0 0 0.998541 830.127 370)">O</text><path d="M1101.91-325.816 1102-372.743" stroke="#000000" stroke-width="3.77402" stroke-linecap="round" transform="matrix(1.00136 0 0 1 -186.844 622.39)"/><text fill="#888888" font-family="Arial,Arial_MSFontService,sans-serif" font-weight="400" font-size="31" transform="matrix(0.999896 0 0 0.998541 905.426 241)">H</text><text fill="#888888" font-family="Arial,Arial_MSFontService,sans-serif" font-weight="400" font-size="31" transform="matrix(0.999896 0 0 0.998541 992.39 358)">H</text><text fill="#888888" font-family="Arial,Arial_MSFontService,sans-serif" font-weight="400" font-size="31" transform="matrix(0.999896 0 0 0.998541 931.204 408)">H</text><path d="M1124.45-244.735 1107.91-287.636 1119.05-243.028Z" transform="matrix(1.00136 0 0 1 -186.844 622.39)"/><path d="M1113.99-301.362 1114.63-303.137" stroke="#000000" stroke-width="1.88701" transform="matrix(1.00136 0 0 1 -186.844 622.39)"/><path d="M1117.97-299.895 1118.63-301.729" stroke="#000000" stroke-width="1.88701" transform="matrix(1.00136 0 0 1 -186.844 622.39)"/><path d="M1121.95-298.428 1122.63-300.321" stroke="#000000" stroke-width="1.88701" transform="matrix(1.00136 0 0 1 -186.844 622.39)"/><path d="M1125.93-296.961 1126.63-298.913" stroke="#000000" stroke-width="1.88701" transform="matrix(1.00136 0 0 1 -186.844 622.39)"/><path d="M1129.91-295.493 1130.63-297.505" stroke="#000000" stroke-width="1.88701" transform="matrix(1.00136 0 0 1 -186.844 622.39)"/><path d="M1133.89-294.026 1134.63-296.097" stroke="#000000" stroke-width="1.88701" transform="matrix(1.00136 0 0 1 -186.844 622.39)"/><path d="M1137.87-292.559 1138.63-294.689" stroke="#000000" stroke-width="1.88701" transform="matrix(1.00136 0 0 1 -186.844 622.39)"/><path d="M1141.85-291.092 1142.64-293.281" stroke="#000000" stroke-width="1.88701" transform="matrix(1.00136 0 0 1 -186.844 622.39)"/><path d="M1145.83-289.625 1146.64-291.873" stroke="#000000" stroke-width="1.88701" transform="matrix(1.00136 0 0 1 -186.844 622.39)"/><path d="M1149.81-288.158 1150.64-290.465" stroke="#000000" stroke-width="1.88701" transform="matrix(1.00136 0 0 1 -186.844 622.39)"/><path d="M1153.79-286.691 1154.64-289.057" stroke="#000000" stroke-width="1.88701" transform="matrix(1.00136 0 0 1 -186.844 622.39)"/><path d="M1157.77-285.224 1158.64-287.649" stroke="#000000" stroke-width="1.88701" transform="matrix(1.00136 0 0 1 -186.844 622.39)"/><path d="M1161.75-283.757 1162.64-286.241" stroke="#000000" stroke-width="1.88701" transform="matrix(1.00136 0 0 1 -186.844 622.39)"/><path d="M1165.73-282.29 1166.65-284.833" stroke="#000000" stroke-width="1.88701" transform="matrix(1.00136 0 0 1 -186.844 622.39)"/><path d="M1169.71-280.823 1170.65-283.426" stroke="#000000" stroke-width="1.88701" transform="matrix(1.00136 0 0 1 -186.844 622.39)"/><path d="M1173.69-279.356 1174.65-282.018" stroke="#000000" stroke-width="1.88701" transform="matrix(1.00136 0 0 1 -186.844 622.39)"/><text font-family="Arial,Arial_MSFontService,sans-serif" font-weight="400" font-size="31" transform="matrix(0.999896 0 0 0.998541 905.265 602)">C</text><path d="M1089.45-23.8703 1043.37 3.44365" stroke="#000000" stroke-width="3.77402" stroke-linecap="round" transform="matrix(1.00136 0 0 1 -186.844 622.39)"/><text fill="#FF0D0D" font-family="Arial,Arial_MSFontService,sans-serif" font-weight="400" font-size="31" transform="matrix(0.999896 0 0 0.998541 807.742 646)">H</text><text fill="#FF0D0D" font-family="Arial,Arial_MSFontService,sans-serif" font-weight="400" font-size="31" transform="matrix(0.999896 0 0 0.998541 830.127 646)">O</text><path d="M1101.91-50.3248 1102-97.2529" stroke="#000000" stroke-width="3.77402" stroke-linecap="round" transform="matrix(1.00136 0 0 1 -186.844 622.39)"/><text fill="#888888" font-family="Arial,Arial_MSFontService,sans-serif" font-weight="400" font-size="31" transform="matrix(0.999896 0 0 0.998541 905.426 517)">H</text><text fill="#888888" font-family="Arial,Arial_MSFontService,sans-serif" font-weight="400" font-size="31" transform="matrix(0.999896 0 0 0.998541 992.39 633)">H</text><text fill="#888888" font-family="Arial,Arial_MSFontService,sans-serif" font-weight="400" font-size="31" transform="matrix(0.999896 0 0 0.998541 931.204 684)">H</text><path d="M1124.45 30.7561 1107.91-12.1454 1119.05 32.4626Z" transform="matrix(1.00136 0 0 1 -186.844 622.39)"/><path d="M1113.99-25.8708 1114.63-27.6461" stroke="#000000" stroke-width="1.88701" transform="matrix(1.00136 0 0 1 -186.844 622.39)"/><path d="M1117.97-24.4037 1118.63-26.2381" stroke="#000000" stroke-width="1.88701" transform="matrix(1.00136 0 0 1 -186.844 622.39)"/><path d="M1121.95-22.9365 1122.63-24.8301" stroke="#000000" stroke-width="1.88701" transform="matrix(1.00136 0 0 1 -186.844 622.39)"/><path d="M1125.93-21.4694 1126.63-23.4221" stroke="#000000" stroke-width="1.88701" transform="matrix(1.00136 0 0 1 -186.844 622.39)"/><path d="M1129.91-20.0023 1130.63-22.0141" stroke="#000000" stroke-width="1.88701" transform="matrix(1.00136 0 0 1 -186.844 622.39)"/><path d="M1133.89-18.5352 1134.63-20.6061" stroke="#000000" stroke-width="1.88701" transform="matrix(1.00136 0 0 1 -186.844 622.39)"/><path d="M1137.87-17.0681 1138.63-19.198" stroke="#000000" stroke-width="1.88701" transform="matrix(1.00136 0 0 1 -186.844 622.39)"/><path d="M1141.85-15.601 1142.64-17.79" stroke="#000000" stroke-width="1.88701" transform="matrix(1.00136 0 0 1 -186.844 622.39)"/><path d="M1145.83-14.1338 1146.64-16.382" stroke="#000000" stroke-width="1.88701" transform="matrix(1.00136 0 0 1 -186.844 622.39)"/><path d="M1149.81-12.6667 1150.64-14.974" stroke="#000000" stroke-width="1.88701" transform="matrix(1.00136 0 0 1 -186.844 622.39)"/><path d="M1153.79-11.1996 1154.64-13.566" stroke="#000000" stroke-width="1.88701" transform="matrix(1.00136 0 0 1 -186.844 622.39)"/><path d="M1157.77-9.73248 1158.64-12.158" stroke="#000000" stroke-width="1.88701" transform="matrix(1.00136 0 0 1 -186.844 622.39)"/><path d="M1161.75-8.26536 1162.64-10.75" stroke="#000000" stroke-width="1.88701" transform="matrix(1.00136 0 0 1 -186.844 622.39)"/><path d="M1165.73-6.79825 1166.65-9.34198" stroke="#000000" stroke-width="1.88701" transform="matrix(1.00136 0 0 1 -186.844 622.39)"/><path d="M1169.71-5.33113 1170.65-7.93397" stroke="#000000" stroke-width="1.88701" transform="matrix(1.00136 0 0 1 -186.844 622.39)"/><path d="M1173.69-3.86401 1174.65-6.52596" stroke="#000000" stroke-width="1.88701" transform="matrix(1.00136 0 0 1 -186.844 622.39)"/><path d="M364.802-48.9038C399.821-94.8988 465.495-103.797 511.49-68.7789 515.779-65.5129 519.81-61.9204 523.547-58.0333" stroke="#0000F5" stroke-width="1.88701" fill="none" transform="matrix(1.00136 0 0 1 -186.844 622.39)"/><path d="M533.734-45.6648 525.158-63.0955 523.547-58.0334 517.957-56.9991Z" fill="#0000F5" transform="matrix(1.00136 0 0 1 -186.844 622.39)"/><path d="M712.858-293.22 906.164-293.22" stroke="#000000" stroke-width="2.83051" fill="none" transform="matrix(1.00136 0 0 1 -186.844 622.39)"/><path d="M930.223-293.22 901.918-300.297 906.164-293.22 901.918-286.144Z" transform="matrix(1.00136 0 0 1 -186.844 622.39)"/><path d="M712.858-23.4953 906.164-23.4953" stroke="#000000" stroke-width="2.83051" fill="none" transform="matrix(1.00136 0 0 1 -186.844 622.39)"/><path d="M930.223-23.4953 901.918-30.5716 906.164-23.4953 901.918-16.4191Z" transform="matrix(1.00136 0 0 1 -186.844 622.39)"/><text fill="#A62929" font-family="Arial,Arial_MSFontService,sans-serif" font-weight="400" font-size="31" transform="matrix(0.999896 0 0 0.998541 1116.37 325)">Br</text><text fill="#A62929" font-family="Arial,Arial_MSFontService,sans-serif" font-weight="400" font-size="31" transform="matrix(0.999896 0 0 0.998541 1116.37 600)">Br</text><text font-family="Arial,Arial_MSFontService,sans-serif" font-weight="400" font-size="31" transform="matrix(0.999896 0 0 0.998541 1052.17 318)">+</text><text font-family="Arial,Arial_MSFontService,sans-serif" font-weight="400" font-size="31" transform="matrix(0.999896 0 0 0.998541 1061.8 594)">+</text><path d="M1325.06-50.5634 1334.65-50.8198" stroke="#7A3F29" stroke-width="1.88701" transform="matrix(1.00136 0 0 1 -186.844 622.39)"/><path d="M1325.3-325.366 1335.16-325.622" stroke="#7A3F29" stroke-width="1.88701" transform="matrix(1.00136 0 0 1 -186.844 622.39)"/><path d="M1325.06-50.5634 1334.65-50.8198" stroke="#7A3F29" stroke-width="1.88701" transform="matrix(1.00136 0 0 1 -186.844 622.39)"/><path d="M529.714 786.455C528.147 795.305 532.358 804.186 540.201 808.575 548.045 812.964 557.814 811.908 564.537 805.943L563.369 804.626C557.201 810.098 548.255 811.066 541.06 807.04 533.864 803.014 530.008 794.882 531.446 786.762Z" fill="#008000" transform="matrix(0.983316 0.350687 -0.47943 0.890709 260.949 -547.43)"/><path d="M570.657 792.403 563.055 805.871 565.526 810.158Z" fill="#008000" transform="matrix(0.983316 0.350687 -0.47943 0.890709 260.949 -547.43)"/><path d="M570.696 792.353 563.256 805.911 558.31 806.07Z" fill="#008000" transform="matrix(0.983316 0.350687 -0.47943 0.890709 260.949 -547.43)"/><path d="M553.004 821.033C551.368 830.272 555.763 839.544 563.952 844.126 572.14 848.708 582.339 847.605 589.358 841.378L588.139 840.003C581.7 845.715 572.36 846.726 564.848 842.523 557.336 838.319 553.311 829.83 554.812 821.354Z" fill="#008000" transform="matrix(0.927768 0.37753 -0.493588 0.878771 297.468 -317.725)"/><path d="M595.747 827.242 587.811 841.302 590.391 845.778Z" fill="#008000" transform="matrix(0.927768 0.37753 -0.493588 0.878771 297.468 -317.725)"/><path d="M595.787 827.19 588.021 841.344 582.857 841.511Z" fill="#008000" transform="matrix(0.927768 0.37753 -0.493588 0.878771 297.468 -317.725)"/></g></svg>