<?xml version="1.0" standalone="no" ?>
<!DOCTYPE svg PUBLIC "-//W3C//DTD SVG 1.1//EN" "http://www.w3.org/Graphics/SVG/1.1/DTD/svg11.dtd">
<svg width="282px" height="109px" viewBox="0 0 282 109" style="background-color: #ffffff00" xmlns="http://www.w3.org/2000/svg" xmlns:xlink="http://www.w3.org/1999/xlink" version="1.1" >
<text x="0" y="0" stroke="none" fill="#000000" transform="matrix(0.05 0 0 0.05 18.3824 26.854)" font-style="normal" font-weight="normal" font-size="200px" font-family="Helvetica" >
Cl</text>
<path stroke="none" fill="#000000" transform="matrix(0.05 0 0 0.05 -12 -109)" d="M 523.238,2605.9 A 16.6667,16.6667 0 1 0 556.571,2605.9A 16.6667,16.6667 0 1 0 523.238,2605.9Z " />
<path stroke="none" fill="#000000" transform="matrix(0.05 0 0 0.05 -12 -109)" d="M 523.238,2680.9 A 16.6667,16.6667 0 1 0 556.571,2680.9A 16.6667,16.6667 0 1 0 523.238,2680.9Z " />
<path stroke="none" fill="#000000" transform="matrix(0.05 0 0 0.05 -12 -109)" d="M 720.571,2483.57 A 16.6667,16.6667 0 1 0 753.904,2483.57A 16.6667,16.6667 0 1 0 720.571,2483.57Z " />
<path stroke="none" fill="#000000" transform="matrix(0.05 0 0 0.05 -12 -109)" d="M 645.571,2483.57 A 16.6667,16.6667 0 1 0 678.904,2483.57A 16.6667,16.6667 0 1 0 645.571,2483.57Z " />
<path stroke="none" fill="#000000" transform="matrix(0.05 0 0 0.05 -12 -109)" d="M 645.571,2803.23 A 16.6667,16.6667 0 1 0 678.904,2803.23A 16.6667,16.6667 0 1 0 645.571,2803.23Z " />
<path stroke="none" fill="#000000" transform="matrix(0.05 0 0 0.05 -12 -109)" d="M 720.571,2803.23 A 16.6667,16.6667 0 1 0 753.904,2803.23A 16.6667,16.6667 0 1 0 720.571,2803.23Z " />
<path stroke="none" fill="#000000" transform="matrix(0.05 0 0 0.05 -12 -109)" d="M 822.086,2635.37 A 16.6667,16.6667 0 1 0 855.419,2635.37A 16.6667,16.6667 0 1 0 822.086,2635.37Z " />
<text x="0" y="0" stroke="none" fill="#000000" transform="matrix(0.05 0 0 0.05 51.255 25.7212)" font-style="normal" font-weight="normal" font-size="200px" font-family="Helvetica" >
+</text>
<text x="0" y="0" stroke="none" fill="#000000" transform="matrix(0.05 0 0 0.05 82.4293 26.7564)" font-style="normal" font-weight="normal" font-size="200px" font-family="Helvetica" >
C</text>
<text x="0" y="0" stroke="none" fill="#000000" transform="matrix(0.05 0 0 0.05 82.4293 43.7564)" font-style="normal" font-weight="normal" font-size="200px" font-family="Helvetica" >
H</text>
<path stroke="none" fill="#000000" transform="matrix(0.05 0 0 0.05 -12 -109)" d="M 1968.81,2884.65 L 1952.8,2884.65 L 1952.8,2744.78 L 1968.81,2744.78 L 1968.81,2884.65 Z " />
<text x="0" y="0" stroke="none" fill="#000000" transform="matrix(0.05 0 0 0.05 65.4293 26.7564)" font-style="normal" font-weight="normal" font-size="200px" font-family="Helvetica" >
H</text>
<path stroke="none" fill="#000000" transform="matrix(0.05 0 0 0.05 -12 -109)" d="M 1703.32,2651.41 L 1703.32,2635.39 L 1870.36,2635.39 L 1870.36,2651.41 L 1703.32,2651.41 Z " />
<text x="0" y="0" stroke="none" fill="#000000" transform="matrix(0.05 0 0 0.05 99.4293 26.7564)" font-style="normal" font-weight="normal" font-size="200px" font-family="Helvetica" >
H</text>
<path stroke="none" fill="#000000" transform="matrix(0.05 0 0 0.05 -12 -109)" d="M 2217.29,2635.39 L 2217.29,2651.41 L 2050.39,2651.41 L 2050.39,2635.39 L 2217.29,2635.39 Z " />
<text x="0" y="0" stroke="none" fill="#000000" transform="matrix(0.05 0 0 0.05 82.4293 9.75636)" font-style="normal" font-weight="normal" font-size="200px" font-family="Helvetica" >
H</text>
<path stroke="none" fill="#000000" transform="matrix(0.05 0 0 0.05 -12 -109)" d="M 1952.8,2400.69 L 1968.81,2400.69 L 1968.81,2541.75 L 1952.8,2541.75 L 1952.8,2400.69 Z " />
<path stroke="none" fill="#000000" transform="matrix(0.05 0 0 0.05 -12 -109)" d="M 3427.41,2660.17 L 2546.55,2660.17 L 2546.55,2644.17 L 3427.41,2644.17 Z " />
<path stroke="none" fill="#000000" transform="matrix(0.05 0 0 0.05 -12 -109)" d="M 3566.55,2652.17 C 3566.55,2652.17 3406.39,2693.21 3406.39,2693.21 C 3406.39,2693.21 3426.41,2670.13 3426.41,2652.17 C 3426.41,2633.78 3406.39,2610.13 3406.39,2610.13 C 3406.39,2610.13 3566.55,2652.17 3566.55,2652.17 C 3566.55,2652.17 3566.55,2652.17 3566.55,2652.17 " />
<path stroke="#000000" stroke-width="1" fill="none" transform="matrix(0.05 0 0 0.05 -12 -109)" d="M 3566.55,2652.17 C 3566.55,2652.17 3406.39,2693.21 3406.39,2693.21 C 3406.39,2693.21 3426.41,2670.13 3426.41,2652.17 C 3426.41,2633.78 3406.39,2610.13 3406.39,2610.13 C 3406.39,2610.13 3566.55,2652.17 3566.55,2652.17 C 3566.55,2652.17 3566.55,2652.17 3566.55,2652.17 " />
<text x="0" y="0" stroke="none" fill="#000000" transform="matrix(0.05 0 0 0.05 174.96 26.6636)" font-style="normal" font-weight="normal" font-size="200px" font-family="Helvetica" >
H</text>
<text x="0" y="0" stroke="none" fill="#000000" transform="matrix(0.05 0 0 0.05 191.96 26.6636)" font-style="normal" font-weight="normal" font-size="200px" font-family="Helvetica" >
Cl</text>
<path stroke="none" fill="#000000" transform="matrix(0.05 0 0 0.05 -12 -109)" d="M 4061.97,2633.54 L 4061.97,2649.55 L 3893.93,2649.55 L 3893.93,2633.54 L 4061.97,2633.54 Z " />
<text x="0" y="0" stroke="none" fill="#000000" transform="matrix(0.05 0 0 0.05 214.536 25.7212)" font-style="normal" font-weight="normal" font-size="200px" font-family="Helvetica" >
+</text>
<text x="0" y="0" stroke="none" fill="#000000" transform="matrix(0.05 0 0 0.05 244.428 26.7564)" font-style="normal" font-weight="normal" font-size="200px" font-family="Helvetica" >
C</text>
<text x="0" y="0" stroke="none" fill="#000000" transform="matrix(0.05 0 0 0.05 244.428 43.7564)" font-style="normal" font-weight="normal" font-size="200px" font-family="Helvetica" >
H</text>
<path stroke="none" fill="#000000" transform="matrix(0.05 0 0 0.05 -12 -109)" d="M 5208.79,2884.65 L 5192.78,2884.65 L 5192.78,2744.78 L 5208.79,2744.78 L 5208.79,2884.65 Z " />
<text x="0" y="0" stroke="none" fill="#000000" transform="matrix(0.05 0 0 0.05 261.428 26.7564)" font-style="normal" font-weight="normal" font-size="200px" font-family="Helvetica" >
H</text>
<path stroke="none" fill="#000000" transform="matrix(0.05 0 0 0.05 -12 -109)" d="M 5457.27,2635.39 L 5457.27,2651.41 L 5290.37,2651.41 L 5290.37,2635.39 L 5457.27,2635.39 Z " />
<text x="0" y="0" stroke="none" fill="#000000" transform="matrix(0.05 0 0 0.05 244.428 9.75636)" font-style="normal" font-weight="normal" font-size="200px" font-family="Helvetica" >
H</text>
<path stroke="none" fill="#000000" transform="matrix(0.05 0 0 0.05 -12 -109)" d="M 5192.78,2400.69 L 5208.79,2400.69 L 5208.79,2541.75 L 5192.78,2541.75 L 5192.78,2400.69 Z " />
<path stroke="none" fill="#000000" transform="matrix(0.05 0 0 0.05 -12 -109)" d="M 5055.49,2627.06 A 16.6667,16.6667 0 1 0 5088.82,2627.06A 16.6667,16.6667 0 1 0 5055.49,2627.06Z " />
<path stroke="none" fill="#000000" transform="matrix(0.05 0 0 0.05 -12 -109)" d="M 4192.12,2481.71 A 16.6667,16.6667 0 1 0 4225.45,2481.71A 16.6667,16.6667 0 1 0 4192.12,2481.71Z " />
<path stroke="none" fill="#000000" transform="matrix(0.05 0 0 0.05 -12 -109)" d="M 4117.12,2481.71 A 16.6667,16.6667 0 1 0 4150.45,2481.71A 16.6667,16.6667 0 1 0 4117.12,2481.71Z " />
<path stroke="none" fill="#000000" transform="matrix(0.05 0 0 0.05 -12 -109)" d="M 4117.12,2801.38 A 16.6667,16.6667 0 1 0 4150.45,2801.38A 16.6667,16.6667 0 1 0 4117.12,2801.38Z " />
<path stroke="none" fill="#000000" transform="matrix(0.05 0 0 0.05 -12 -109)" d="M 4192.12,2801.38 A 16.6667,16.6667 0 1 0 4225.45,2801.38A 16.6667,16.6667 0 1 0 4192.12,2801.38Z " />
<path stroke="none" fill="#000000" transform="matrix(0.05 0 0 0.05 -12 -109)" d="M 4314.45,2679.04 A 16.6667,16.6667 0 1 0 4347.78,2679.04A 16.6667,16.6667 0 1 0 4314.45,2679.04Z " />
<path stroke="none" fill="#000000" transform="matrix(0.05 0 0 0.05 -12 -109)" d="M 4314.45,2604.04 A 16.6667,16.6667 0 1 0 4347.78,2604.04A 16.6667,16.6667 0 1 0 4314.45,2604.04Z " />
<text x="0" y="0" stroke="none" fill="#000000" transform="matrix(0.05 0 0 0.05 6.95662 89.1642)" font-style="normal" font-weight="normal" font-size="200px" font-family="Helvetica" >
Cl</text>
<text x="0" y="0" stroke="none" fill="#000000" transform="matrix(0.05 0 0 0.05 28.6783 89.1642)" font-style="normal" font-weight="normal" font-size="200px" font-family="Helvetica" >
Cl</text>
<path stroke="none" fill="#000000" transform="matrix(0.05 0 0 0.05 -12 -109)" d="M 795.339,3883.55 L 795.339,3899.56 L 580.937,3899.56 L 580.937,3883.55 L 795.339,3883.55 Z " />
<path stroke="none" fill="#000000" transform="matrix(0.05 0 0 0.05 -12 -109)" d="M 294.722,3852.1 A 16.6667,16.6667 0 1 0 328.056,3852.1A 16.6667,16.6667 0 1 0 294.722,3852.1Z " />
<path stroke="none" fill="#000000" transform="matrix(0.05 0 0 0.05 -12 -109)" d="M 294.722,3927.1 A 16.6667,16.6667 0 1 0 328.056,3927.1A 16.6667,16.6667 0 1 0 294.722,3927.1Z " />
<path stroke="none" fill="#000000" transform="matrix(0.05 0 0 0.05 -12 -109)" d="M 492.056,3729.77 A 16.6667,16.6667 0 1 0 525.389,3729.77A 16.6667,16.6667 0 1 0 492.056,3729.77Z " />
<path stroke="none" fill="#000000" transform="matrix(0.05 0 0 0.05 -12 -109)" d="M 417.056,3729.77 A 16.6667,16.6667 0 1 0 450.389,3729.77A 16.6667,16.6667 0 1 0 417.056,3729.77Z " />
<path stroke="none" fill="#000000" transform="matrix(0.05 0 0 0.05 -12 -109)" d="M 417.056,4049.44 A 16.6667,16.6667 0 1 0 450.389,4049.44A 16.6667,16.6667 0 1 0 417.056,4049.44Z " />
<path stroke="none" fill="#000000" transform="matrix(0.05 0 0 0.05 -12 -109)" d="M 492.056,4049.44 A 16.6667,16.6667 0 1 0 525.389,4049.44A 16.6667,16.6667 0 1 0 492.056,4049.44Z " />
<path stroke="none" fill="#000000" transform="matrix(0.05 0 0 0.05 -12 -109)" d="M 926.489,3731.72 A 16.6667,16.6667 0 1 0 959.822,3731.72A 16.6667,16.6667 0 1 0 926.489,3731.72Z " />
<path stroke="none" fill="#000000" transform="matrix(0.05 0 0 0.05 -12 -109)" d="M 851.489,3731.72 A 16.6667,16.6667 0 1 0 884.822,3731.72A 16.6667,16.6667 0 1 0 851.489,3731.72Z " />
<path stroke="none" fill="#000000" transform="matrix(0.05 0 0 0.05 -12 -109)" d="M 851.489,4051.39 A 16.6667,16.6667 0 1 0 884.822,4051.39A 16.6667,16.6667 0 1 0 851.489,4051.39Z " />
<path stroke="none" fill="#000000" transform="matrix(0.05 0 0 0.05 -12 -109)" d="M 926.489,4051.39 A 16.6667,16.6667 0 1 0 959.822,4051.39A 16.6667,16.6667 0 1 0 926.489,4051.39Z " />
<path stroke="none" fill="#000000" transform="matrix(0.05 0 0 0.05 -12 -109)" d="M 1048.82,3929.06 A 16.6667,16.6667 0 1 0 1082.16,3929.06A 16.6667,16.6667 0 1 0 1048.82,3929.06Z " />
<path stroke="none" fill="#000000" transform="matrix(0.05 0 0 0.05 -12 -109)" d="M 1048.82,3854.06 A 16.6667,16.6667 0 1 0 1082.16,3854.06A 16.6667,16.6667 0 1 0 1048.82,3854.06Z " />
<path stroke="#ff0000" stroke-width="16" fill="none" transform="matrix(0.05 0 0 0.05 -12 -109)" d="M 1188.09,3583.52 C 1082.75,3437.36 888.965,3399.5 755.548,3499.01 C 655.3,3573.78 613.513,3719.87 655.709,3848.05 " />
<path stroke="none" fill="#ff0000" transform="matrix(0.05 0 0 0.05 -12 -109)" d="M 1239.04,3687.05 C 1239.04,3687.05 1190.09,3591.02 1190.09,3591.02 C 1200.05,3577.22 1209.53,3554.82 1209.53,3554.82 C 1209.53,3554.82 1239.04,3687.05 1239.04,3687.05 C 1239.04,3687.05 1239.04,3687.05 1239.04,3687.05 " />
<path stroke="#ff0000" stroke-width="1" fill="none" transform="matrix(0.05 0 0 0.05 -12 -109)" d="M 1239.04,3687.05 C 1239.04,3687.05 1190.09,3591.02 1190.09,3591.02 C 1200.05,3577.22 1209.53,3554.82 1209.53,3554.82 C 1209.53,3554.82 1239.04,3687.05 1239.04,3687.05 C 1239.04,3687.05 1239.04,3687.05 1239.04,3687.05 " />
<path stroke="#ff0000" stroke-width="16" fill="none" transform="matrix(0.05 0 0 0.05 -12 -109)" d="M 550.257,4147.44 C 621.976,4162.68 692.564,4116.84 707.808,4045.12 C 714.56,4013.36 709.152,3979.21 692.915,3951.08 " />
<path stroke="none" fill="#ff0000" transform="matrix(0.05 0 0 0.05 -12 -109)" d="M 458.837,4076.92 C 458.837,4076.92 546.257,4140.44 546.257,4140.44 C 542.183,4158.39 543.599,4182.49 543.599,4182.49 C 543.599,4182.49 458.837,4076.92 458.837,4076.92 C 458.837,4076.92 458.837,4076.92 458.837,4076.92 " />
<path stroke="#ff0000" stroke-width="1" fill="none" transform="matrix(0.05 0 0 0.05 -12 -109)" d="M 458.837,4076.92 C 458.837,4076.92 546.257,4140.44 546.257,4140.44 C 542.183,4158.39 543.599,4182.49 543.599,4182.49 C 543.599,4182.49 458.837,4076.92 458.837,4076.92 C 458.837,4076.92 458.837,4076.92 458.837,4076.92 " />
<text x="0" y="0" stroke="none" fill="#000000" transform="matrix(0.05 0 0 0.05 51.255 87.1462)" font-style="normal" font-weight="normal" font-size="200px" font-family="Helvetica" >
+</text>
<text x="0" y="0" stroke="none" fill="#000000" transform="matrix(0.05 0 0 0.05 76.1939 88.1814)" font-style="normal" font-weight="normal" font-size="200px" font-family="Helvetica" >
C</text>
<text x="0" y="0" stroke="none" fill="#000000" transform="matrix(0.05 0 0 0.05 76.1939 105.181)" font-style="normal" font-weight="normal" font-size="200px" font-family="Helvetica" >
H</text>
<path stroke="none" fill="#000000" transform="matrix(0.05 0 0 0.05 -12 -109)" d="M 1844.1,4113.15 L 1828.09,4113.15 L 1828.09,3973.28 L 1844.1,3973.28 L 1844.1,4113.15 Z " />
<text x="0" y="0" stroke="none" fill="#000000" transform="matrix(0.05 0 0 0.05 93.1939 88.1814)" font-style="normal" font-weight="normal" font-size="200px" font-family="Helvetica" >
H</text>
<path stroke="none" fill="#000000" transform="matrix(0.05 0 0 0.05 -12 -109)" d="M 2092.59,3863.89 L 2092.59,3879.91 L 1925.68,3879.91 L 1925.68,3863.89 L 2092.59,3863.89 Z " />
<text x="0" y="0" stroke="none" fill="#000000" transform="matrix(0.05 0 0 0.05 76.1939 71.1814)" font-style="normal" font-weight="normal" font-size="200px" font-family="Helvetica" >
H</text>
<path stroke="none" fill="#000000" transform="matrix(0.05 0 0 0.05 -12 -109)" d="M 1828.09,3629.19 L 1844.1,3629.19 L 1844.1,3770.25 L 1828.09,3770.25 L 1828.09,3629.19 Z " />
<path stroke="none" fill="#000000" transform="matrix(0.05 0 0 0.05 -12 -109)" d="M 1690.8,3855.56 A 16.6667,16.6667 0 1 0 1724.13,3855.56A 16.6667,16.6667 0 1 0 1690.8,3855.56Z " />
<path stroke="none" fill="#000000" transform="matrix(0.05 0 0 0.05 -12 -109)" d="M 3427.41,3888.67 L 2546.55,3888.67 L 2546.55,3872.67 L 3427.41,3872.67 Z " />
<path stroke="none" fill="#000000" transform="matrix(0.05 0 0 0.05 -12 -109)" d="M 3566.55,3880.67 C 3566.55,3880.67 3406.39,3921.71 3406.39,3921.71 C 3406.39,3921.71 3426.41,3898.63 3426.41,3880.67 C 3426.41,3862.28 3406.39,3838.63 3406.39,3838.63 C 3406.39,3838.63 3566.55,3880.67 3566.55,3880.67 C 3566.55,3880.67 3566.55,3880.67 3566.55,3880.67 " />
<path stroke="#000000" stroke-width="1" fill="none" transform="matrix(0.05 0 0 0.05 -12 -109)" d="M 3566.55,3880.67 C 3566.55,3880.67 3406.39,3921.71 3406.39,3921.71 C 3406.39,3921.71 3426.41,3898.63 3426.41,3880.67 C 3426.41,3862.28 3406.39,3838.63 3406.39,3838.63 C 3406.39,3838.63 3566.55,3880.67 3566.55,3880.67 C 3566.55,3880.67 3566.55,3880.67 3566.55,3880.67 " />
<text x="0" y="0" stroke="none" fill="#000000" transform="matrix(0.05 0 0 0.05 186.617 89.2176)" font-style="normal" font-weight="normal" font-size="200px" font-family="Helvetica" >
Cl</text>
<path stroke="none" fill="#000000" transform="matrix(0.05 0 0 0.05 -12 -109)" d="M 3887.93,3853.17 A 16.6667,16.6667 0 1 0 3921.26,3853.17A 16.6667,16.6667 0 1 0 3887.93,3853.17Z " />
<path stroke="none" fill="#000000" transform="matrix(0.05 0 0 0.05 -12 -109)" d="M 3887.93,3928.17 A 16.6667,16.6667 0 1 0 3921.26,3928.17A 16.6667,16.6667 0 1 0 3887.93,3928.17Z " />
<path stroke="none" fill="#000000" transform="matrix(0.05 0 0 0.05 -12 -109)" d="M 4085.26,3730.84 A 16.6667,16.6667 0 1 0 4118.59,3730.84A 16.6667,16.6667 0 1 0 4085.26,3730.84Z " />
<path stroke="none" fill="#000000" transform="matrix(0.05 0 0 0.05 -12 -109)" d="M 4010.26,3730.84 A 16.6667,16.6667 0 1 0 4043.59,3730.84A 16.6667,16.6667 0 1 0 4010.26,3730.84Z " />
<path stroke="none" fill="#000000" transform="matrix(0.05 0 0 0.05 -12 -109)" d="M 4010.26,4050.5 A 16.6667,16.6667 0 1 0 4043.59,4050.5A 16.6667,16.6667 0 1 0 4010.26,4050.5Z " />
<path stroke="none" fill="#000000" transform="matrix(0.05 0 0 0.05 -12 -109)" d="M 4085.26,4050.5 A 16.6667,16.6667 0 1 0 4118.59,4050.5A 16.6667,16.6667 0 1 0 4085.26,4050.5Z " />
<path stroke="none" fill="#000000" transform="matrix(0.05 0 0 0.05 -12 -109)" d="M 4186.78,3882.64 A 16.6667,16.6667 0 1 0 4220.11,3882.64A 16.6667,16.6667 0 1 0 4186.78,3882.64Z " />
<text x="0" y="0" stroke="none" fill="#000000" transform="matrix(0.05 0 0 0.05 214.536 87.8287)" font-style="normal" font-weight="normal" font-size="200px" font-family="Helvetica" >
+</text>
<text x="0" y="0" stroke="none" fill="#000000" transform="matrix(0.05 0 0 0.05 255.617 89.5464)" font-style="normal" font-weight="normal" font-size="200px" font-family="Helvetica" >
C</text>
<text x="0" y="0" stroke="none" fill="#000000" transform="matrix(0.05 0 0 0.05 255.617 106.546)" font-style="normal" font-weight="normal" font-size="200px" font-family="Helvetica" >
H</text>
<path stroke="none" fill="#000000" transform="matrix(0.05 0 0 0.05 -12 -109)" d="M 5432.56,4140.45 L 5416.55,4140.45 L 5416.55,4000.58 L 5432.56,4000.58 L 5432.56,4140.45 Z " />
<text x="0" y="0" stroke="none" fill="#000000" transform="matrix(0.05 0 0 0.05 233.895 89.5464)" font-style="normal" font-weight="normal" font-size="200px" font-family="Helvetica" >
Cl</text>
<path stroke="none" fill="#000000" transform="matrix(0.05 0 0 0.05 -12 -109)" d="M 5119.71,3907.21 L 5119.71,3891.19 L 5334.11,3891.19 L 5334.11,3907.21 L 5119.71,3907.21 Z " />
<text x="0" y="0" stroke="none" fill="#000000" transform="matrix(0.05 0 0 0.05 272.617 89.5464)" font-style="normal" font-weight="normal" font-size="200px" font-family="Helvetica" >
H</text>
<path stroke="none" fill="#000000" transform="matrix(0.05 0 0 0.05 -12 -109)" d="M 5681.05,3891.19 L 5681.05,3907.21 L 5514.14,3907.21 L 5514.14,3891.19 L 5681.05,3891.19 Z " />
<text x="0" y="0" stroke="none" fill="#000000" transform="matrix(0.05 0 0 0.05 255.617 72.5464)" font-style="normal" font-weight="normal" font-size="200px" font-family="Helvetica" >
H</text>
<path stroke="none" fill="#000000" transform="matrix(0.05 0 0 0.05 -12 -109)" d="M 5416.55,3656.49 L 5432.56,3656.49 L 5432.56,3797.55 L 5416.55,3797.55 L 5416.55,3656.49 Z " />
<path stroke="none" fill="#000000" transform="matrix(0.05 0 0 0.05 -12 -109)" d="M 4833.5,3861.7 A 16.6667,16.6667 0 1 0 4866.83,3861.7A 16.6667,16.6667 0 1 0 4833.5,3861.7Z " />
<path stroke="none" fill="#000000" transform="matrix(0.05 0 0 0.05 -12 -109)" d="M 4833.5,3936.7 A 16.6667,16.6667 0 1 0 4866.83,3936.7A 16.6667,16.6667 0 1 0 4833.5,3936.7Z " />
<path stroke="none" fill="#000000" transform="matrix(0.05 0 0 0.05 -12 -109)" d="M 5030.83,3739.37 A 16.6667,16.6667 0 1 0 5064.16,3739.37A 16.6667,16.6667 0 1 0 5030.83,3739.37Z " />
<path stroke="none" fill="#000000" transform="matrix(0.05 0 0 0.05 -12 -109)" d="M 4955.83,3739.37 A 16.6667,16.6667 0 1 0 4989.16,3739.37A 16.6667,16.6667 0 1 0 4955.83,3739.37Z " />
<path stroke="none" fill="#000000" transform="matrix(0.05 0 0 0.05 -12 -109)" d="M 4955.83,4059.03 A 16.6667,16.6667 0 1 0 4989.16,4059.03A 16.6667,16.6667 0 1 0 4955.83,4059.03Z " />
<path stroke="none" fill="#000000" transform="matrix(0.05 0 0 0.05 -12 -109)" d="M 5030.83,4059.03 A 16.6667,16.6667 0 1 0 5064.16,4059.03A 16.6667,16.6667 0 1 0 5030.83,4059.03Z " />
<path stroke="#ff0000" stroke-width="16" fill="none" transform="matrix(0.05 0 0 0.05 -12 -109)" d="M 1255.13,2350.69 C 1165.86,2247.5 1009.65,2236.21 906.46,2325.47 C 836.664,2385.86 805.593,2486.63 829.266,2575.83 " />
<path stroke="none" fill="#ff0000" transform="matrix(0.05 0 0 0.05 -12 -109)" d="M 1309.11,2456.51 C 1309.11,2456.51 1257.13,2358.19 1257.13,2358.19 C 1267.76,2343.81 1276.8,2320.8 1276.8,2320.8 C 1276.8,2320.8 1309.11,2456.51 1309.11,2456.51 C 1309.11,2456.51 1309.11,2456.51 1309.11,2456.51 " />
<path stroke="#ff0000" stroke-width="1" fill="none" transform="matrix(0.05 0 0 0.05 -12 -109)" d="M 1309.11,2456.51 C 1309.11,2456.51 1257.13,2358.19 1257.13,2358.19 C 1267.76,2343.81 1276.8,2320.8 1276.8,2320.8 C 1276.8,2320.8 1309.11,2456.51 1309.11,2456.51 C 1309.11,2456.51 1309.11,2456.51 1309.11,2456.51 " />
<path stroke="#ff0000" stroke-width="16" fill="none" transform="matrix(0.05 0 0 0.05 -12 -109)" d="M 1794.65,2600 C 1833.69,2465.63 1763.19,2322.73 1637.28,2281.06 C 1553.43,2253.31 1456.57,2279.63 1395.35,2346.78 " />
<path stroke="none" fill="#ff0000" transform="matrix(0.05 0 0 0.05 -12 -109)" d="M 1335.93,2456.51 C 1335.93,2456.51 1373.28,2314.91 1373.28,2314.91 C 1373.28,2314.91 1379.06,2346.39 1392.85,2354.28 C 1392.85,2354.28 1335.93,2456.51 1335.93,2456.51 C 1335.93,2456.51 1335.93,2456.51 1335.93,2456.51 " />
<path stroke="#ff0000" stroke-width="1" fill="none" transform="matrix(0.05 0 0 0.05 -12 -109)" d="M 1335.93,2456.51 C 1335.93,2456.51 1373.28,2314.91 1373.28,2314.91 C 1373.28,2314.91 1379.06,2346.39 1392.85,2354.28 C 1392.85,2354.28 1335.93,2456.51 1335.93,2456.51 C 1335.93,2456.51 1335.93,2456.51 1335.93,2456.51 " />
<path stroke="#ff0000" stroke-width="16" fill="none" transform="matrix(0.05 0 0 0.05 -12 -109)" d="M 1780.01,2685.76 C 1757.63,2792.33 1767.97,2884.81 1803.08,2892.18 C 1823.1,2896.39 1849.18,2870.07 1871.26,2823.4 " />
<path stroke="none" fill="#ff0000" transform="matrix(0.05 0 0 0.05 -12 -109)" d="M 1908.73,2704.47 C 1908.73,2704.47 1898.81,2850.53 1898.81,2850.53 C 1898.81,2850.53 1887.64,2820.54 1872.76,2815.4 C 1872.76,2815.4 1908.73,2704.47 1908.73,2704.47 C 1908.73,2704.47 1908.73,2704.47 1908.73,2704.47 " />
<path stroke="#ff0000" stroke-width="1" fill="none" transform="matrix(0.05 0 0 0.05 -12 -109)" d="M 1908.73,2704.47 C 1908.73,2704.47 1898.81,2850.53 1898.81,2850.53 C 1898.81,2850.53 1887.64,2820.54 1872.76,2815.4 C 1872.76,2815.4 1908.73,2704.47 1908.73,2704.47 C 1908.73,2704.47 1908.73,2704.47 1908.73,2704.47 " />
<path stroke="#ff0000" stroke-width="16" fill="none" transform="matrix(0.05 0 0 0.05 -12 -109)" d="M 1711.62,3798.74 C 1739.89,3656.27 1656.52,3513.93 1525.55,3481.04 C 1436.24,3458.6 1338.02,3496.23 1282.18,3574.26 " />
<path stroke="none" fill="#ff0000" transform="matrix(0.05 0 0 0.05 -12 -109)" d="M 1235.04,3687.54 C 1235.04,3687.54 1257.55,3545.33 1257.55,3545.33 C 1257.55,3545.33 1266.29,3576.05 1280.18,3582.26 C 1280.18,3582.26 1235.04,3687.54 1235.04,3687.54 C 1235.04,3687.54 1235.04,3687.54 1235.04,3687.54 " />
<path stroke="#ff0000" stroke-width="1" fill="none" transform="matrix(0.05 0 0 0.05 -12 -109)" d="M 1235.04,3687.54 C 1235.04,3687.54 1257.55,3545.33 1257.55,3545.33 C 1257.55,3545.33 1266.29,3576.05 1280.18,3582.26 C 1280.18,3582.26 1235.04,3687.54 1235.04,3687.54 C 1235.04,3687.54 1235.04,3687.54 1235.04,3687.54 " />
</svg>
