<?xml version="1.0" standalone="no" ?>
<!DOCTYPE svg PUBLIC "-//W3C//DTD SVG 1.1//EN" "http://www.w3.org/Graphics/SVG/1.1/DTD/svg11.dtd">
<svg width="230px" height="158px" viewBox="0 0 230 158" style="background-color: #ffffff00" xmlns="http://www.w3.org/2000/svg" xmlns:xlink="http://www.w3.org/1999/xlink" version="1.1" >
<text x="0" y="0" stroke="none" fill="#000000" transform="matrix(0.05 0 0 0.05 26.5806 25.1801)" font-style="normal" font-weight="normal" font-size="200px" font-family="Helvetica" >
Cl</text>
<text x="0" y="0" stroke="none" fill="#000000" transform="matrix(0.05 0 0 0.05 52.0858 24.0473)" font-style="normal" font-weight="normal" font-size="200px" font-family="Helvetica" >
+</text>
<text x="0" y="0" stroke="none" fill="#000000" transform="matrix(0.05 0 0 0.05 78.0749 25.1801)" font-style="normal" font-weight="normal" font-size="200px" font-family="Helvetica" >
Cl</text>
<path stroke="none" fill="#000000" transform="matrix(0.05 0 0 0.05 -37 -209)" d="M 3721.62,4625.3 L 2840.75,4625.3 L 2840.75,4609.3 L 3721.62,4609.3 Z " />
<path stroke="none" fill="#000000" transform="matrix(0.05 0 0 0.05 -37 -209)" d="M 3860.75,4617.3 C 3860.75,4617.3 3700.6,4658.33 3700.6,4658.33 C 3700.6,4658.33 3720.62,4635.25 3720.62,4617.3 C 3720.62,4598.9 3700.6,4575.26 3700.6,4575.26 C 3700.6,4575.26 3860.75,4617.3 3860.75,4617.3 C 3860.75,4617.3 3860.75,4617.3 3860.75,4617.3 " />
<path stroke="#000000" stroke-width="1" fill="none" transform="matrix(0.05 0 0 0.05 -37 -209)" d="M 3860.75,4617.3 C 3860.75,4617.3 3700.6,4658.33 3700.6,4658.33 C 3700.6,4658.33 3720.62,4635.25 3720.62,4617.3 C 3720.62,4598.9 3700.6,4575.26 3700.6,4575.26 C 3700.6,4575.26 3860.75,4617.3 3860.75,4617.3 C 3860.75,4617.3 3860.75,4617.3 3860.75,4617.3 " />
<path stroke="none" fill="#000000" transform="matrix(0.05 0 0 0.05 -37 -209)" d="M 4305.93,4611.16 L 4305.93,4595.15 L 4520.34,4595.15 L 4520.34,4611.16 L 4305.93,4611.16 Z " />
<text x="0" y="0" stroke="none" fill="#000000" transform="matrix(0.05 0 0 0.05 168.206 24.7442)" font-style="normal" font-weight="normal" font-size="200px" font-family="Helvetica" >
Cl</text>
<text x="0" y="0" stroke="none" fill="#000000" transform="matrix(0.05 0 0 0.05 189.928 24.7442)" font-style="normal" font-weight="normal" font-size="200px" font-family="Helvetica" >
Cl</text>
<path stroke="none" fill="#000000" transform="matrix(0.05 0 0 0.05 -37 -209)" d="M 4651.49,4441.37 A 16.6667,16.6667 0 1 0 4684.82,4441.37A 16.6667,16.6667 0 1 0 4651.49,4441.37Z " />
<path stroke="none" fill="#000000" transform="matrix(0.05 0 0 0.05 -37 -209)" d="M 4576.49,4441.37 A 16.6667,16.6667 0 1 0 4609.82,4441.37A 16.6667,16.6667 0 1 0 4576.49,4441.37Z " />
<path stroke="none" fill="#000000" transform="matrix(0.05 0 0 0.05 -37 -209)" d="M 4576.49,4761.04 A 16.6667,16.6667 0 1 0 4609.82,4761.04A 16.6667,16.6667 0 1 0 4576.49,4761.04Z " />
<path stroke="none" fill="#000000" transform="matrix(0.05 0 0 0.05 -37 -209)" d="M 4651.49,4761.04 A 16.6667,16.6667 0 1 0 4684.82,4761.04A 16.6667,16.6667 0 1 0 4651.49,4761.04Z " />
<path stroke="none" fill="#000000" transform="matrix(0.05 0 0 0.05 -37 -209)" d="M 4773.82,4638.7 A 16.6667,16.6667 0 1 0 4807.15,4638.7A 16.6667,16.6667 0 1 0 4773.82,4638.7Z " />
<path stroke="none" fill="#000000" transform="matrix(0.05 0 0 0.05 -37 -209)" d="M 4773.82,4563.7 A 16.6667,16.6667 0 1 0 4807.15,4563.7A 16.6667,16.6667 0 1 0 4773.82,4563.7Z " />
<path stroke="none" fill="#000000" transform="matrix(0.05 0 0 0.05 -37 -209)" d="M 4019.72,4565.66 A 16.6667,16.6667 0 1 0 4053.05,4565.66A 16.6667,16.6667 0 1 0 4019.72,4565.66Z " />
<path stroke="none" fill="#000000" transform="matrix(0.05 0 0 0.05 -37 -209)" d="M 4019.72,4640.66 A 16.6667,16.6667 0 1 0 4053.05,4640.66A 16.6667,16.6667 0 1 0 4019.72,4640.66Z " />
<path stroke="none" fill="#000000" transform="matrix(0.05 0 0 0.05 -37 -209)" d="M 4217.05,4443.32 A 16.6667,16.6667 0 1 0 4250.38,4443.32A 16.6667,16.6667 0 1 0 4217.05,4443.32Z " />
<path stroke="none" fill="#000000" transform="matrix(0.05 0 0 0.05 -37 -209)" d="M 4142.05,4443.32 A 16.6667,16.6667 0 1 0 4175.38,4443.32A 16.6667,16.6667 0 1 0 4142.05,4443.32Z " />
<path stroke="none" fill="#000000" transform="matrix(0.05 0 0 0.05 -37 -209)" d="M 4142.05,4762.99 A 16.6667,16.6667 0 1 0 4175.38,4762.99A 16.6667,16.6667 0 1 0 4142.05,4762.99Z " />
<path stroke="none" fill="#000000" transform="matrix(0.05 0 0 0.05 -37 -209)" d="M 4217.05,4762.99 A 16.6667,16.6667 0 1 0 4250.38,4762.99A 16.6667,16.6667 0 1 0 4217.05,4762.99Z " />
<path stroke="none" fill="#000000" transform="matrix(0.05 0 0 0.05 -37 -209)" d="M 1187.2,4572.42 A 16.6667,16.6667 0 1 0 1220.54,4572.42A 16.6667,16.6667 0 1 0 1187.2,4572.42Z " />
<path stroke="none" fill="#000000" transform="matrix(0.05 0 0 0.05 -37 -209)" d="M 1187.2,4647.42 A 16.6667,16.6667 0 1 0 1220.54,4647.42A 16.6667,16.6667 0 1 0 1187.2,4647.42Z " />
<path stroke="none" fill="#000000" transform="matrix(0.05 0 0 0.05 -37 -209)" d="M 1384.54,4450.09 A 16.6667,16.6667 0 1 0 1417.87,4450.09A 16.6667,16.6667 0 1 0 1384.54,4450.09Z " />
<path stroke="none" fill="#000000" transform="matrix(0.05 0 0 0.05 -37 -209)" d="M 1309.54,4450.09 A 16.6667,16.6667 0 1 0 1342.87,4450.09A 16.6667,16.6667 0 1 0 1309.54,4450.09Z " />
<path stroke="none" fill="#000000" transform="matrix(0.05 0 0 0.05 -37 -209)" d="M 1309.54,4769.75 A 16.6667,16.6667 0 1 0 1342.87,4769.75A 16.6667,16.6667 0 1 0 1309.54,4769.75Z " />
<path stroke="none" fill="#000000" transform="matrix(0.05 0 0 0.05 -37 -209)" d="M 1384.54,4769.75 A 16.6667,16.6667 0 1 0 1417.87,4769.75A 16.6667,16.6667 0 1 0 1384.54,4769.75Z " />
<path stroke="none" fill="#000000" transform="matrix(0.05 0 0 0.05 -37 -209)" d="M 2414.42,4450.09 A 16.6667,16.6667 0 1 0 2447.75,4450.09A 16.6667,16.6667 0 1 0 2414.42,4450.09Z " />
<path stroke="none" fill="#000000" transform="matrix(0.05 0 0 0.05 -37 -209)" d="M 2339.42,4450.09 A 16.6667,16.6667 0 1 0 2372.75,4450.09A 16.6667,16.6667 0 1 0 2339.42,4450.09Z " />
<path stroke="none" fill="#000000" transform="matrix(0.05 0 0 0.05 -37 -209)" d="M 2339.42,4769.75 A 16.6667,16.6667 0 1 0 2372.75,4769.75A 16.6667,16.6667 0 1 0 2339.42,4769.75Z " />
<path stroke="none" fill="#000000" transform="matrix(0.05 0 0 0.05 -37 -209)" d="M 2414.42,4769.75 A 16.6667,16.6667 0 1 0 2447.75,4769.75A 16.6667,16.6667 0 1 0 2414.42,4769.75Z " />
<path stroke="none" fill="#000000" transform="matrix(0.05 0 0 0.05 -37 -209)" d="M 2536.75,4647.42 A 16.6667,16.6667 0 1 0 2570.09,4647.42A 16.6667,16.6667 0 1 0 2536.75,4647.42Z " />
<path stroke="none" fill="#000000" transform="matrix(0.05 0 0 0.05 -37 -209)" d="M 2536.75,4572.42 A 16.6667,16.6667 0 1 0 2570.09,4572.42A 16.6667,16.6667 0 1 0 2536.75,4572.42Z " />
<path stroke="none" fill="#000000" transform="matrix(0.05 0 0 0.05 -37 -209)" d="M 1486.26,4607.44 A 16.6667,16.6667 0 1 0 1519.59,4607.44A 16.6667,16.6667 0 1 0 1486.26,4607.44Z " />
<path stroke="none" fill="#000000" transform="matrix(0.05 0 0 0.05 -37 -209)" d="M 2237.83,4616.42 A 16.6667,16.6667 0 1 0 2271.16,4616.42A 16.6667,16.6667 0 1 0 2237.83,4616.42Z " />
<path stroke="#ff0000" stroke-width="16" fill="none" transform="matrix(0.05 0 0 0.05 -37 -209)" d="M 1830.21,4287.91 C 1733.48,4213.01 1594.17,4230.72 1519.26,4327.45 C 1470.2,4390.81 1459.51,4481.11 1492.42,4554.17 " />
<path stroke="none" fill="#ff0000" transform="matrix(0.05 0 0 0.05 -37 -209)" d="M 1900.09,4379.63 C 1900.09,4379.63 1833.71,4295.41 1833.71,4295.41 C 1840.7,4279.56 1845.79,4255.91 1845.79,4255.91 C 1845.79,4255.91 1900.09,4379.63 1900.09,4379.63 C 1900.09,4379.63 1900.09,4379.63 1900.09,4379.63 " />
<path stroke="#ff0000" stroke-width="1" fill="none" transform="matrix(0.05 0 0 0.05 -37 -209)" d="M 1900.09,4379.63 C 1900.09,4379.63 1833.71,4295.41 1833.71,4295.41 C 1840.7,4279.56 1845.79,4255.91 1845.79,4255.91 C 1845.79,4255.91 1900.09,4379.63 1900.09,4379.63 C 1900.09,4379.63 1900.09,4379.63 1900.09,4379.63 " />
<path stroke="#ff0000" stroke-width="16" fill="none" transform="matrix(0.05 0 0 0.05 -37 -209)" d="M 2265.61,4568.28 C 2310.22,4456.74 2266.03,4325.41 2166.98,4275.17 C 2105.63,4244.06 2030.47,4251.58 1974.95,4294.39 " />
<path stroke="none" fill="#ff0000" transform="matrix(0.05 0 0 0.05 -37 -209)" d="M 1903.2,4393.24 C 1903.2,4393.24 1957.46,4260.77 1957.46,4260.77 C 1957.46,4260.77 1959.28,4292.24 1971.45,4301.39 C 1971.45,4301.39 1903.2,4393.24 1903.2,4393.24 C 1903.2,4393.24 1903.2,4393.24 1903.2,4393.24 " />
<path stroke="#ff0000" stroke-width="1" fill="none" transform="matrix(0.05 0 0 0.05 -37 -209)" d="M 1903.2,4393.24 C 1903.2,4393.24 1957.46,4260.77 1957.46,4260.77 C 1957.46,4260.77 1959.28,4292.24 1971.45,4301.39 C 1971.45,4301.39 1903.2,4393.24 1903.2,4393.24 C 1903.2,4393.24 1903.2,4393.24 1903.2,4393.24 " />
<text x="0" y="0" stroke="none" fill="#000000" transform="matrix(0.05 0 0 0.05 10.0324 80.5053)" font-style="normal" font-weight="normal" font-size="200px" font-family="Helvetica" >
Cl</text>
<path stroke="none" fill="#000000" transform="matrix(0.05 0 0 0.05 -37 -209)" d="M 856.238,5678.92 A 16.6667,16.6667 0 1 0 889.571,5678.92A 16.6667,16.6667 0 1 0 856.238,5678.92Z " />
<path stroke="none" fill="#000000" transform="matrix(0.05 0 0 0.05 -37 -209)" d="M 856.238,5753.92 A 16.6667,16.6667 0 1 0 889.571,5753.92A 16.6667,16.6667 0 1 0 856.238,5753.92Z " />
<path stroke="none" fill="#000000" transform="matrix(0.05 0 0 0.05 -37 -209)" d="M 1053.57,5556.59 A 16.6667,16.6667 0 1 0 1086.9,5556.59A 16.6667,16.6667 0 1 0 1053.57,5556.59Z " />
<path stroke="none" fill="#000000" transform="matrix(0.05 0 0 0.05 -37 -209)" d="M 978.57,5556.59 A 16.6667,16.6667 0 1 0 1011.9,5556.59A 16.6667,16.6667 0 1 0 978.57,5556.59Z " />
<path stroke="none" fill="#000000" transform="matrix(0.05 0 0 0.05 -37 -209)" d="M 978.57,5876.26 A 16.6667,16.6667 0 1 0 1011.9,5876.26A 16.6667,16.6667 0 1 0 978.57,5876.26Z " />
<path stroke="none" fill="#000000" transform="matrix(0.05 0 0 0.05 -37 -209)" d="M 1053.57,5876.26 A 16.6667,16.6667 0 1 0 1086.9,5876.26A 16.6667,16.6667 0 1 0 1053.57,5876.26Z " />
<path stroke="none" fill="#000000" transform="matrix(0.05 0 0 0.05 -37 -209)" d="M 1155.09,5708.39 A 16.6667,16.6667 0 1 0 1188.42,5708.39A 16.6667,16.6667 0 1 0 1155.09,5708.39Z " />
<text x="0" y="0" stroke="none" fill="#000000" transform="matrix(0.05 0 0 0.05 42.905 79.3725)" font-style="normal" font-weight="normal" font-size="200px" font-family="Helvetica" >
+</text>
<path stroke="#ff0000" stroke-width="16" fill="none" transform="matrix(0.05 0 0 0.05 -37 -209)" d="M 1588.13,5423.72 C 1498.86,5320.53 1342.65,5309.23 1239.46,5398.5 C 1169.66,5458.88 1138.59,5559.65 1162.27,5648.85 " />
<path stroke="none" fill="#ff0000" transform="matrix(0.05 0 0 0.05 -37 -209)" d="M 1642.11,5529.54 C 1642.11,5529.54 1590.13,5431.22 1590.13,5431.22 C 1600.76,5416.84 1609.8,5393.82 1609.8,5393.82 C 1609.8,5393.82 1642.11,5529.54 1642.11,5529.54 C 1642.11,5529.54 1642.11,5529.54 1642.11,5529.54 " />
<path stroke="#ff0000" stroke-width="1" fill="none" transform="matrix(0.05 0 0 0.05 -37 -209)" d="M 1642.11,5529.54 C 1642.11,5529.54 1590.13,5431.22 1590.13,5431.22 C 1600.76,5416.84 1609.8,5393.82 1609.8,5393.82 C 1609.8,5393.82 1642.11,5529.54 1642.11,5529.54 C 1642.11,5529.54 1642.11,5529.54 1642.11,5529.54 " />
<text x="0" y="0" stroke="none" fill="#000000" transform="matrix(0.05 0 0 0.05 71.9859 80.4076)" font-style="normal" font-weight="normal" font-size="200px" font-family="Helvetica" >
C</text>
<text x="0" y="0" stroke="none" fill="#000000" transform="matrix(0.05 0 0 0.05 71.9859 97.4076)" font-style="normal" font-weight="normal" font-size="200px" font-family="Helvetica" >
H</text>
<path stroke="none" fill="#000000" transform="matrix(0.05 0 0 0.05 -37 -209)" d="M 2259.94,5957.68 L 2243.93,5957.68 L 2243.93,5817.8 L 2259.94,5817.8 L 2259.94,5957.68 Z " />
<text x="0" y="0" stroke="none" fill="#000000" transform="matrix(0.05 0 0 0.05 88.9859 80.4076)" font-style="normal" font-weight="normal" font-size="200px" font-family="Helvetica" >
H</text>
<path stroke="none" fill="#000000" transform="matrix(0.05 0 0 0.05 -37 -209)" d="M 2508.42,5708.42 L 2508.42,5724.43 L 2341.52,5724.43 L 2341.52,5708.42 L 2508.42,5708.42 Z " />
<text x="0" y="0" stroke="none" fill="#000000" transform="matrix(0.05 0 0 0.05 71.9859 63.4076)" font-style="normal" font-weight="normal" font-size="200px" font-family="Helvetica" >
H</text>
<path stroke="none" fill="#000000" transform="matrix(0.05 0 0 0.05 -37 -209)" d="M 2243.93,5473.71 L 2259.94,5473.71 L 2259.94,5614.77 L 2243.93,5614.77 L 2243.93,5473.71 Z " />
<path stroke="none" fill="#000000" transform="matrix(0.05 0 0 0.05 -37 -209)" d="M 2106.64,5700.09 A 16.6667,16.6667 0 1 0 2139.97,5700.09A 16.6667,16.6667 0 1 0 2106.64,5700.09Z " />
<path stroke="none" fill="#000000" transform="matrix(0.05 0 0 0.05 -37 -209)" d="M 3764.82,5731.5 L 2883.95,5731.5 L 2883.95,5715.5 L 3764.82,5715.5 Z " />
<path stroke="none" fill="#000000" transform="matrix(0.05 0 0 0.05 -37 -209)" d="M 3903.95,5723.5 C 3903.95,5723.5 3743.8,5764.54 3743.8,5764.54 C 3743.8,5764.54 3763.82,5741.45 3763.82,5723.5 C 3763.82,5705.11 3743.8,5681.46 3743.8,5681.46 C 3743.8,5681.46 3903.95,5723.5 3903.95,5723.5 C 3903.95,5723.5 3903.95,5723.5 3903.95,5723.5 " />
<path stroke="#000000" stroke-width="1" fill="none" transform="matrix(0.05 0 0 0.05 -37 -209)" d="M 3903.95,5723.5 C 3903.95,5723.5 3743.8,5764.54 3743.8,5764.54 C 3743.8,5764.54 3763.82,5741.45 3763.82,5723.5 C 3763.82,5705.11 3743.8,5681.46 3743.8,5681.46 C 3743.8,5681.46 3903.95,5723.5 3903.95,5723.5 C 3903.95,5723.5 3903.95,5723.5 3903.95,5723.5 " />
<text x="0" y="0" stroke="none" fill="#000000" transform="matrix(0.05 0 0 0.05 194.579 80.4076)" font-style="normal" font-weight="normal" font-size="200px" font-family="Helvetica" >
C</text>
<text x="0" y="0" stroke="none" fill="#000000" transform="matrix(0.05 0 0 0.05 194.579 97.4076)" font-style="normal" font-weight="normal" font-size="200px" font-family="Helvetica" >
H</text>
<path stroke="none" fill="#000000" transform="matrix(0.05 0 0 0.05 -37 -209)" d="M 4711.81,5957.68 L 4695.8,5957.68 L 4695.8,5817.8 L 4711.81,5817.8 L 4711.81,5957.68 Z " />
<text x="0" y="0" stroke="none" fill="#000000" transform="matrix(0.05 0 0 0.05 172.858 80.4076)" font-style="normal" font-weight="normal" font-size="200px" font-family="Helvetica" >
Cl</text>
<path stroke="none" fill="#000000" transform="matrix(0.05 0 0 0.05 -37 -209)" d="M 4398.96,5724.43 L 4398.96,5708.42 L 4613.36,5708.42 L 4613.36,5724.43 L 4398.96,5724.43 Z " />
<text x="0" y="0" stroke="none" fill="#000000" transform="matrix(0.05 0 0 0.05 211.579 80.4076)" font-style="normal" font-weight="normal" font-size="200px" font-family="Helvetica" >
H</text>
<path stroke="none" fill="#000000" transform="matrix(0.05 0 0 0.05 -37 -209)" d="M 4960.3,5708.42 L 4960.3,5724.43 L 4793.39,5724.43 L 4793.39,5708.42 L 4960.3,5708.42 Z " />
<text x="0" y="0" stroke="none" fill="#000000" transform="matrix(0.05 0 0 0.05 194.579 63.4076)" font-style="normal" font-weight="normal" font-size="200px" font-family="Helvetica" >
H</text>
<path stroke="none" fill="#000000" transform="matrix(0.05 0 0 0.05 -37 -209)" d="M 4695.8,5473.71 L 4711.81,5473.71 L 4711.81,5614.77 L 4695.8,5614.77 L 4695.8,5473.71 Z " />
<path stroke="none" fill="#000000" transform="matrix(0.05 0 0 0.05 -37 -209)" d="M 4112.74,5678.92 A 16.6667,16.6667 0 1 0 4146.08,5678.92A 16.6667,16.6667 0 1 0 4112.74,5678.92Z " />
<path stroke="none" fill="#000000" transform="matrix(0.05 0 0 0.05 -37 -209)" d="M 4112.74,5753.92 A 16.6667,16.6667 0 1 0 4146.08,5753.92A 16.6667,16.6667 0 1 0 4112.74,5753.92Z " />
<path stroke="none" fill="#000000" transform="matrix(0.05 0 0 0.05 -37 -209)" d="M 4310.08,5556.59 A 16.6667,16.6667 0 1 0 4343.41,5556.59A 16.6667,16.6667 0 1 0 4310.08,5556.59Z " />
<path stroke="none" fill="#000000" transform="matrix(0.05 0 0 0.05 -37 -209)" d="M 4235.08,5556.59 A 16.6667,16.6667 0 1 0 4268.41,5556.59A 16.6667,16.6667 0 1 0 4235.08,5556.59Z " />
<path stroke="none" fill="#000000" transform="matrix(0.05 0 0 0.05 -37 -209)" d="M 4235.08,5876.26 A 16.6667,16.6667 0 1 0 4268.41,5876.26A 16.6667,16.6667 0 1 0 4235.08,5876.26Z " />
<path stroke="none" fill="#000000" transform="matrix(0.05 0 0 0.05 -37 -209)" d="M 4310.08,5876.26 A 16.6667,16.6667 0 1 0 4343.41,5876.26A 16.6667,16.6667 0 1 0 4310.08,5876.26Z " />
<path stroke="#ff0000" stroke-width="16" fill="none" transform="matrix(0.05 0 0 0.05 -37 -209)" d="M 2131.08,5642.98 C 2164.45,5507.48 2081.56,5370.4 1946.06,5337.02 C 1853.86,5314.31 1750.74,5348.52 1690.39,5421.83 " />
<path stroke="none" fill="#ff0000" transform="matrix(0.05 0 0 0.05 -37 -209)" d="M 1638.11,5530.04 C 1638.11,5530.04 1667.95,5392.15 1667.95,5392.15 C 1667.95,5392.15 1675.43,5423.11 1688.39,5429.83 C 1688.39,5429.83 1638.11,5530.04 1638.11,5530.04 C 1638.11,5530.04 1638.11,5530.04 1638.11,5530.04 " />
<path stroke="#ff0000" stroke-width="1" fill="none" transform="matrix(0.05 0 0 0.05 -37 -209)" d="M 1638.11,5530.04 C 1638.11,5530.04 1667.95,5392.15 1667.95,5392.15 C 1667.95,5392.15 1675.43,5423.11 1688.39,5429.83 C 1688.39,5429.83 1638.11,5530.04 1638.11,5530.04 C 1638.11,5530.04 1638.11,5530.04 1638.11,5530.04 " />
<text x="0" y="0" stroke="none" fill="#000000" transform="matrix(0.05 0 0 0.05 44.4575 136.186)" font-style="normal" font-weight="normal" font-size="200px" font-family="Helvetica" >
+</text>
<text x="0" y="0" stroke="none" fill="#000000" transform="matrix(0.05 0 0 0.05 69.3964 137.221)" font-style="normal" font-weight="normal" font-size="200px" font-family="Helvetica" >
C</text>
<text x="0" y="0" stroke="none" fill="#000000" transform="matrix(0.05 0 0 0.05 69.3964 154.221)" font-style="normal" font-weight="normal" font-size="200px" font-family="Helvetica" >
H</text>
<path stroke="none" fill="#000000" transform="matrix(0.05 0 0 0.05 -37 -209)" d="M 2208.15,7093.95 L 2192.14,7093.95 L 2192.14,6954.08 L 2208.15,6954.08 L 2208.15,7093.95 Z " />
<text x="0" y="0" stroke="none" fill="#000000" transform="matrix(0.05 0 0 0.05 86.3964 137.221)" font-style="normal" font-weight="normal" font-size="200px" font-family="Helvetica" >
H</text>
<path stroke="none" fill="#000000" transform="matrix(0.05 0 0 0.05 -37 -209)" d="M 2456.64,6844.69 L 2456.64,6860.71 L 2289.73,6860.71 L 2289.73,6844.69 L 2456.64,6844.69 Z " />
<text x="0" y="0" stroke="none" fill="#000000" transform="matrix(0.05 0 0 0.05 69.3964 120.221)" font-style="normal" font-weight="normal" font-size="200px" font-family="Helvetica" >
H</text>
<path stroke="none" fill="#000000" transform="matrix(0.05 0 0 0.05 -37 -209)" d="M 2192.14,6609.99 L 2208.15,6609.99 L 2208.15,6751.05 L 2192.14,6751.05 L 2192.14,6609.99 Z " />
<path stroke="none" fill="#000000" transform="matrix(0.05 0 0 0.05 -37 -209)" d="M 2054.85,6836.36 A 16.6667,16.6667 0 1 0 2088.18,6836.36A 16.6667,16.6667 0 1 0 2054.85,6836.36Z " />
<path stroke="none" fill="#000000" transform="matrix(0.05 0 0 0.05 -37 -209)" d="M 3791.46,6869.47 L 2910.6,6869.47 L 2910.6,6853.47 L 3791.46,6853.47 Z " />
<path stroke="none" fill="#000000" transform="matrix(0.05 0 0 0.05 -37 -209)" d="M 3930.6,6861.47 C 3930.6,6861.47 3770.44,6902.51 3770.44,6902.51 C 3770.44,6902.51 3790.46,6879.43 3790.46,6861.47 C 3790.46,6843.08 3770.44,6819.43 3770.44,6819.43 C 3770.44,6819.43 3930.6,6861.47 3930.6,6861.47 C 3930.6,6861.47 3930.6,6861.47 3930.6,6861.47 " />
<path stroke="#000000" stroke-width="1" fill="none" transform="matrix(0.05 0 0 0.05 -37 -209)" d="M 3930.6,6861.47 C 3930.6,6861.47 3770.44,6902.51 3770.44,6902.51 C 3770.44,6902.51 3790.46,6879.43 3790.46,6861.47 C 3790.46,6843.08 3770.44,6819.43 3770.44,6819.43 C 3770.44,6819.43 3930.6,6861.47 3930.6,6861.47 C 3930.6,6861.47 3930.6,6861.47 3930.6,6861.47 " />
<path stroke="none" fill="#000000" transform="matrix(0.05 0 0 0.05 -37 -209)" d="M 1169.99,6609.99 L 1186.01,6609.99 L 1186.01,6751.05 L 1169.99,6751.05 L 1169.99,6609.99 Z " />
<text x="0" y="0" stroke="none" fill="#000000" transform="matrix(0.05 0 0 0.05 18.2892 120.221)" font-style="normal" font-weight="normal" font-size="200px" font-family="Helvetica" >
H</text>
<path stroke="none" fill="#000000" transform="matrix(0.05 0 0 0.05 -37 -209)" d="M 920.522,6860.71 L 920.522,6844.69 L 1087.56,6844.69 L 1087.56,6860.71 L 920.522,6860.71 Z " />
<text x="0" y="0" stroke="none" fill="#000000" transform="matrix(0.05 0 0 0.05 1.28917 137.221)" font-style="normal" font-weight="normal" font-size="200px" font-family="Helvetica" >
H</text>
<path stroke="none" fill="#000000" transform="matrix(0.05 0 0 0.05 -37 -209)" d="M 1186.01,7093.95 L 1169.99,7093.95 L 1169.99,6954.08 L 1186.01,6954.08 L 1186.01,7093.95 Z " />
<text x="0" y="0" stroke="none" fill="#000000" transform="matrix(0.05 0 0 0.05 18.2892 154.221)" font-style="normal" font-weight="normal" font-size="200px" font-family="Helvetica" >
H</text>
<text x="0" y="0" stroke="none" fill="#000000" transform="matrix(0.05 0 0 0.05 18.2892 137.221)" font-style="normal" font-weight="normal" font-size="200px" font-family="Helvetica" >
C</text>
<path stroke="none" fill="#000000" transform="matrix(0.05 0 0 0.05 -37 -209)" d="M 1291.11,6847.31 A 16.6667,16.6667 0 1 0 1324.44,6847.31A 16.6667,16.6667 0 1 0 1291.11,6847.31Z " />
<path stroke="#ff0000" stroke-width="16" fill="none" transform="matrix(0.05 0 0 0.05 -37 -209)" d="M 1631.69,6582.48 C 1559.57,6480.86 1435.71,6472.29 1355.23,6563.35 C 1301.65,6623.97 1278.2,6723.06 1296.66,6810.85 " />
<path stroke="none" fill="#ff0000" transform="matrix(0.05 0 0 0.05 -37 -209)" d="M 1677.61,6691.54 C 1677.61,6691.54 1634.19,6589.98 1634.19,6589.98 C 1644.62,6576.7 1655.5,6554.56 1655.5,6554.56 C 1655.5,6554.56 1677.61,6691.54 1677.61,6691.54 C 1677.61,6691.54 1677.61,6691.54 1677.61,6691.54 " />
<path stroke="#ff0000" stroke-width="1" fill="none" transform="matrix(0.05 0 0 0.05 -37 -209)" d="M 1677.61,6691.54 C 1677.61,6691.54 1634.19,6589.98 1634.19,6589.98 C 1644.62,6576.7 1655.5,6554.56 1655.5,6554.56 C 1655.5,6554.56 1677.61,6691.54 1677.61,6691.54 C 1677.61,6691.54 1677.61,6691.54 1677.61,6691.54 " />
<path stroke="#ff0000" stroke-width="16" fill="none" transform="matrix(0.05 0 0 0.05 -37 -209)" d="M 2078.09,6798.05 C 2102.15,6662.55 2042.39,6525.48 1944.7,6492.1 C 1880.58,6470.19 1808.98,6500.97 1765.04,6569.34 " />
<path stroke="none" fill="#ff0000" transform="matrix(0.05 0 0 0.05 -37 -209)" d="M 1721.61,6684.61 C 1721.61,6684.61 1739.09,6541.25 1739.09,6541.25 C 1739.09,6541.25 1748.24,6571.13 1762.54,6576.84 C 1762.54,6576.84 1721.61,6684.61 1721.61,6684.61 C 1721.61,6684.61 1721.61,6684.61 1721.61,6684.61 " />
<path stroke="#ff0000" stroke-width="1" fill="none" transform="matrix(0.05 0 0 0.05 -37 -209)" d="M 1721.61,6684.61 C 1721.61,6684.61 1739.09,6541.25 1739.09,6541.25 C 1739.09,6541.25 1748.24,6571.13 1762.54,6576.84 C 1762.54,6576.84 1721.61,6684.61 1721.61,6684.61 C 1721.61,6684.61 1721.61,6684.61 1721.61,6684.61 " />
<text x="0" y="0" stroke="none" fill="#000000" transform="matrix(0.05 0 0 0.05 203.917 138.3)" font-style="normal" font-weight="normal" font-size="200px" font-family="Helvetica" >
C</text>
<text x="0" y="0" stroke="none" fill="#000000" transform="matrix(0.05 0 0 0.05 203.917 155.3)" font-style="normal" font-weight="normal" font-size="200px" font-family="Helvetica" >
H</text>
<path stroke="none" fill="#000000" transform="matrix(0.05 0 0 0.05 -37 -209)" d="M 4898.56,7115.53 L 4882.55,7115.53 L 4882.55,6975.65 L 4898.56,6975.65 L 4898.56,7115.53 Z " />
<text x="0" y="0" stroke="none" fill="#000000" transform="matrix(0.05 0 0 0.05 186.917 138.3)" font-style="normal" font-weight="normal" font-size="200px" font-family="Helvetica" >
C</text>
<path stroke="none" fill="#000000" transform="matrix(0.05 0 0 0.05 -37 -209)" d="M 4640.14,6882.28 L 4640.14,6866.27 L 4800.11,6866.27 L 4800.11,6882.28 L 4640.14,6882.28 Z " />
<text x="0" y="0" stroke="none" fill="#000000" transform="matrix(0.05 0 0 0.05 220.917 138.3)" font-style="normal" font-weight="normal" font-size="200px" font-family="Helvetica" >
H</text>
<path stroke="none" fill="#000000" transform="matrix(0.05 0 0 0.05 -37 -209)" d="M 5147.05,6866.27 L 5147.05,6882.28 L 4980.14,6882.28 L 4980.14,6866.27 L 5147.05,6866.27 Z " />
<text x="0" y="0" stroke="none" fill="#000000" transform="matrix(0.05 0 0 0.05 203.917 121.3)" font-style="normal" font-weight="normal" font-size="200px" font-family="Helvetica" >
H</text>
<path stroke="none" fill="#000000" transform="matrix(0.05 0 0 0.05 -37 -209)" d="M 4882.55,6631.56 L 4898.56,6631.56 L 4898.56,6772.62 L 4882.55,6772.62 L 4882.55,6631.56 Z " />
<text x="0" y="0" stroke="none" fill="#000000" transform="matrix(0.05 0 0 0.05 186.917 121.3)" font-style="normal" font-weight="normal" font-size="200px" font-family="Helvetica" >
H</text>
<path stroke="none" fill="#000000" transform="matrix(0.05 0 0 0.05 -37 -209)" d="M 4542.55,6631.56 L 4558.56,6631.56 L 4558.56,6772.62 L 4542.55,6772.62 L 4542.55,6631.56 Z " />
<text x="0" y="0" stroke="none" fill="#000000" transform="matrix(0.05 0 0 0.05 186.917 155.3)" font-style="normal" font-weight="normal" font-size="200px" font-family="Helvetica" >
H</text>
<path stroke="none" fill="#000000" transform="matrix(0.05 0 0 0.05 -37 -209)" d="M 4558.56,7115.53 L 4542.55,7115.53 L 4542.55,6975.65 L 4558.56,6975.65 L 4558.56,7115.53 Z " />
<text x="0" y="0" stroke="none" fill="#000000" transform="matrix(0.05 0 0 0.05 169.917 138.3)" font-style="normal" font-weight="normal" font-size="200px" font-family="Helvetica" >
H</text>
<path stroke="none" fill="#000000" transform="matrix(0.05 0 0 0.05 -37 -209)" d="M 4293.08,6882.28 L 4293.08,6866.27 L 4460.11,6866.27 L 4460.11,6882.28 L 4293.08,6882.28 Z " />
</svg>
