<?xml version="1.0" standalone="no" ?>
<!DOCTYPE svg PUBLIC "-//W3C//DTD SVG 1.1//EN" "http://www.w3.org/Graphics/SVG/1.1/DTD/svg11.dtd">
<svg width="186px" height="33px" viewBox="0 0 186 33" style="background-color: #ffffff00" xmlns="http://www.w3.org/2000/svg" xmlns:xlink="http://www.w3.org/1999/xlink" version="1.1" >
<text x="0" y="0" stroke="none" fill="#000000" transform="matrix(0.05 0 0 0.05 2.13081 20.1217)" font-style="normal" font-weight="normal" font-size="200px" font-family="Helvetica" >
Cl</text>
<text x="0" y="0" stroke="none" fill="#000000" transform="matrix(0.05 0 0 0.05 23.8525 20.1217)" font-style="normal" font-weight="normal" font-size="200px" font-family="Helvetica" >
Cl</text>
<path stroke="none" fill="#000000" transform="matrix(0.05 0 0 0.05 -43 -63)" d="M 1319.82,1582.7 L 1319.82,1598.71 L 1104.42,1598.71 L 1104.42,1582.7 L 1319.82,1582.7 Z " />
<path stroke="none" fill="#000000" transform="matrix(0.05 0 0 0.05 -43 -63)" d="M 2700.16,1612.85 L 1819.29,1612.85 L 1819.29,1596.85 L 2700.16,1596.85 Z " />
<path stroke="none" fill="#000000" transform="matrix(0.05 0 0 0.05 -43 -63)" d="M 2839.29,1604.85 C 2839.29,1604.85 2679.14,1645.88 2679.14,1645.88 C 2679.14,1645.88 2699.16,1622.8 2699.16,1604.85 C 2699.16,1586.45 2679.14,1562.81 2679.14,1562.81 C 2679.14,1562.81 2839.29,1604.85 2839.29,1604.85 C 2839.29,1604.85 2839.29,1604.85 2839.29,1604.85 " />
<path stroke="#000000" stroke-width="1" fill="none" transform="matrix(0.05 0 0 0.05 -43 -63)" d="M 2839.29,1604.85 C 2839.29,1604.85 2679.14,1645.88 2679.14,1645.88 C 2679.14,1645.88 2699.16,1622.8 2699.16,1604.85 C 2699.16,1586.45 2679.14,1562.81 2679.14,1562.81 C 2679.14,1562.81 2839.29,1604.85 2839.29,1604.85 C 2839.29,1604.85 2839.29,1604.85 2839.29,1604.85 " />
<path stroke="#ff0000" stroke-width="16" fill="none" transform="matrix(0.05 0 0 0.05 -43 -63)" d="M 1449.88,1389.75 C 1408.91,1326.59 1324.39,1308.59 1261.24,1349.56 C 1198.09,1390.54 1180.08,1475.06 1221.06,1538.21 C 1223.73,1542.34 1226.63,1546.32 1229.74,1550.13 " />
<path stroke="none" fill="#ff0000" transform="matrix(0.05 0 0 0.05 -43 -63)" d="M 1465.79,1505.03 C 1465.79,1505.03 1447.88,1397.75 1447.88,1397.75 C 1463.32,1387.15 1478.98,1368.3 1478.98,1368.3 C 1478.98,1368.3 1465.79,1505.03 1465.79,1505.03 C 1465.79,1505.03 1465.79,1505.03 1465.79,1505.03 " />
<path stroke="#ff0000" stroke-width="1" fill="none" transform="matrix(0.05 0 0 0.05 -43 -63)" d="M 1465.79,1505.03 C 1465.79,1505.03 1447.88,1397.75 1447.88,1397.75 C 1463.32,1387.15 1478.98,1368.3 1478.98,1368.3 C 1478.98,1368.3 1465.79,1505.03 1465.79,1505.03 C 1465.79,1505.03 1465.79,1505.03 1465.79,1505.03 " />
<path stroke="#ff0000" stroke-width="16" fill="none" transform="matrix(0.05 0 0 0.05 -43 -63)" d="M 1007.3,1797.93 C 1048.28,1861.09 1132.8,1879.09 1195.95,1838.12 C 1259.1,1797.14 1277.11,1712.62 1236.13,1649.47 C 1233.46,1645.34 1230.55,1641.36 1227.45,1637.55 " />
<path stroke="none" fill="#ff0000" transform="matrix(0.05 0 0 0.05 -43 -63)" d="M 991.398,1682.65 C 991.398,1682.65 1009.3,1789.93 1009.3,1789.93 C 993.869,1800.53 978.209,1819.38 978.209,1819.38 C 978.209,1819.38 991.398,1682.65 991.398,1682.65 C 991.398,1682.65 991.398,1682.65 991.398,1682.65 " />
<path stroke="#ff0000" stroke-width="1" fill="none" transform="matrix(0.05 0 0 0.05 -43 -63)" d="M 991.398,1682.65 C 991.398,1682.65 1009.3,1789.93 1009.3,1789.93 C 993.869,1800.53 978.209,1819.38 978.209,1819.38 C 978.209,1819.38 991.398,1682.65 991.398,1682.65 C 991.398,1682.65 991.398,1682.65 991.398,1682.65 " />
<text x="0" y="0" stroke="none" fill="#000000" transform="matrix(0.05 0 0 0.05 118.706 20.5576)" font-style="normal" font-weight="normal" font-size="200px" font-family="Helvetica" >
Cl</text>
<text x="0" y="0" stroke="none" fill="#000000" transform="matrix(0.05 0 0 0.05 146.077 19.4248)" font-style="normal" font-weight="normal" font-size="200px" font-family="Helvetica" >
+</text>
<text x="0" y="0" stroke="none" fill="#000000" transform="matrix(0.05 0 0 0.05 170.2 20.5576)" font-style="normal" font-weight="normal" font-size="200px" font-family="Helvetica" >
Cl</text>
<path stroke="none" fill="#000000" transform="matrix(0.05 0 0 0.05 -43 -63)" d="M 3149.7,1559.97 A 16.6667,16.6667 0 1 0 3183.04,1559.97A 16.6667,16.6667 0 1 0 3149.7,1559.97Z " />
<path stroke="none" fill="#000000" transform="matrix(0.05 0 0 0.05 -43 -63)" d="M 3149.7,1634.97 A 16.6667,16.6667 0 1 0 3183.04,1634.97A 16.6667,16.6667 0 1 0 3149.7,1634.97Z " />
<path stroke="none" fill="#000000" transform="matrix(0.05 0 0 0.05 -43 -63)" d="M 3347.04,1437.64 A 16.6667,16.6667 0 1 0 3380.37,1437.64A 16.6667,16.6667 0 1 0 3347.04,1437.64Z " />
<path stroke="none" fill="#000000" transform="matrix(0.05 0 0 0.05 -43 -63)" d="M 3272.04,1437.64 A 16.6667,16.6667 0 1 0 3305.37,1437.64A 16.6667,16.6667 0 1 0 3272.04,1437.64Z " />
<path stroke="none" fill="#000000" transform="matrix(0.05 0 0 0.05 -43 -63)" d="M 3272.04,1757.3 A 16.6667,16.6667 0 1 0 3305.37,1757.3A 16.6667,16.6667 0 1 0 3272.04,1757.3Z " />
<path stroke="none" fill="#000000" transform="matrix(0.05 0 0 0.05 -43 -63)" d="M 3347.04,1757.3 A 16.6667,16.6667 0 1 0 3380.37,1757.3A 16.6667,16.6667 0 1 0 3347.04,1757.3Z " />
<path stroke="none" fill="#000000" transform="matrix(0.05 0 0 0.05 -43 -63)" d="M 4376.92,1437.64 A 16.6667,16.6667 0 1 0 4410.26,1437.64A 16.6667,16.6667 0 1 0 4376.92,1437.64Z " />
<path stroke="none" fill="#000000" transform="matrix(0.05 0 0 0.05 -43 -63)" d="M 4301.92,1437.64 A 16.6667,16.6667 0 1 0 4335.26,1437.64A 16.6667,16.6667 0 1 0 4301.92,1437.64Z " />
<path stroke="none" fill="#000000" transform="matrix(0.05 0 0 0.05 -43 -63)" d="M 4301.92,1757.3 A 16.6667,16.6667 0 1 0 4335.26,1757.3A 16.6667,16.6667 0 1 0 4301.92,1757.3Z " />
<path stroke="none" fill="#000000" transform="matrix(0.05 0 0 0.05 -43 -63)" d="M 4376.92,1757.3 A 16.6667,16.6667 0 1 0 4410.26,1757.3A 16.6667,16.6667 0 1 0 4376.92,1757.3Z " />
<path stroke="none" fill="#000000" transform="matrix(0.05 0 0 0.05 -43 -63)" d="M 4499.26,1634.97 A 16.6667,16.6667 0 1 0 4532.59,1634.97A 16.6667,16.6667 0 1 0 4499.26,1634.97Z " />
<path stroke="none" fill="#000000" transform="matrix(0.05 0 0 0.05 -43 -63)" d="M 4499.26,1559.97 A 16.6667,16.6667 0 1 0 4532.59,1559.97A 16.6667,16.6667 0 1 0 4499.26,1559.97Z " />
<path stroke="none" fill="#000000" transform="matrix(0.05 0 0 0.05 -43 -63)" d="M 4201,1582.3 A 16.6667,16.6667 0 1 0 4234.34,1582.3A 16.6667,16.6667 0 1 0 4201,1582.3Z " />
<path stroke="none" fill="#000000" transform="matrix(0.05 0 0 0.05 -43 -63)" d="M 3448.55,1589.44 A 16.6667,16.6667 0 1 0 3481.89,1589.44A 16.6667,16.6667 0 1 0 3448.55,1589.44Z " />
</svg>
